<svg width="119" height="116" viewBox="0 0 119 116" fill="none" xmlns="http://www.w3.org/2000/svg">
<path d="M17.3276 106.302C40.4265 118.371 77.8771 118.371 100.976 106.302C124.075 94.2336 124.078 74.6704 100.976 62.6017C77.8743 50.533 40.4265 50.5358 17.3249 62.6017C-5.77679 74.6677 -5.77404 94.2308 17.3276 106.302Z" fill="#F5F5F5"/>
<path d="M46.5144 95.8215C52.7397 98.7885 62.8304 98.7885 69.0419 95.8215C75.2534 92.8545 75.2672 88.0468 69.0419 85.0797C62.8166 82.1127 52.7287 82.1127 46.5144 85.0797C40.3001 88.0468 40.2782 92.8572 46.5144 95.8215Z" fill="#EBEBEB"/>
<path d="M100.405 88.4781L78.1518 101.321C77.9674 101.415 77.7637 101.464 77.557 101.464C77.3503 101.464 77.1466 101.415 76.9622 101.321L49.1463 85.2556C49.0745 85.2312 49.0122 85.185 48.9681 85.1234C48.9239 85.0618 48.9002 84.9879 48.9002 84.9121C48.9002 84.8364 48.9239 84.7625 48.9681 84.7009C49.0122 84.6393 49.0745 84.5931 49.1463 84.5687L71.399 71.7253C71.5834 71.6319 71.7872 71.5833 71.9938 71.5833C72.2005 71.5833 72.4042 71.6319 72.5886 71.7253L100.413 87.7913C100.484 87.8165 100.546 87.8634 100.589 87.9256C100.633 87.9877 100.656 88.0618 100.655 88.1376C100.654 88.2134 100.629 88.287 100.584 88.3481C100.539 88.4091 100.477 88.4546 100.405 88.4781Z" fill="#EBEBEB"/>
<path d="M106.597 17.8764V23.7748C106.597 23.7748 104.174 24.9094 99.7287 24.9094C95.2836 24.9094 92.8606 23.772 92.8606 23.772V18.0028L97.4979 4.87918C97.4347 5.29127 97.6765 5.70336 98.2205 6.02753C98.6184 6.27313 99.0707 6.41691 99.5374 6.44613C100.004 6.47536 100.471 6.38915 100.896 6.19512C101.016 6.14814 101.131 6.09211 101.242 6.02753C101.819 5.69512 102.067 5.23907 101.954 4.80501L106.597 17.8764Z" fill="#F5F5F5"/>
<path opacity="0.5" d="M106.597 17.8764V23.7748C106.597 23.7748 104.174 24.9094 99.7287 24.9094C95.2836 24.9094 92.8606 23.772 92.8606 23.772V18.0028L97.4979 4.87918C97.4347 5.29127 97.6765 5.70336 98.2205 6.02753C98.6184 6.27313 99.0707 6.41691 99.5374 6.44613C100.004 6.47536 100.471 6.38915 100.896 6.19512C101.016 6.14814 101.131 6.09211 101.242 6.02753C101.819 5.69512 102.067 5.23907 101.954 4.80501L106.597 17.8764Z" fill="white"/>
<path d="M106.064 59.2226C105.666 59.7471 105.161 60.1816 104.583 60.4973C101.896 62.0495 97.5419 62.0495 94.8578 60.4973C94.2789 60.1819 93.7733 59.7474 93.3743 59.2226C93.0643 58.8104 92.8811 58.3169 92.8468 57.8023V60.8654C92.8963 61.8435 93.5639 62.8132 94.8578 63.5605C97.5419 65.1099 101.896 65.1099 104.583 63.5605C105.924 62.7858 106.597 61.7693 106.597 60.7528V57.6924C106.587 58.2462 106.4 58.7823 106.064 59.2226V59.2226Z" fill="#F5F5F5"/>
<path d="M106.064 56.1594C105.666 56.684 105.161 57.1184 104.583 57.4341C104.424 57.5248 104.262 57.6099 104.094 57.6896C101.558 58.8984 97.8798 58.8984 95.3468 57.6896C95.1793 57.6099 95.0144 57.5248 94.8578 57.4341C94.2789 57.1187 93.7733 56.6843 93.3743 56.1594C93.0644 55.7482 92.8811 55.2556 92.8468 54.7418V57.8023C92.8811 58.3169 93.0643 58.8104 93.3743 59.2226C93.7733 59.7474 94.2789 60.1819 94.8578 60.4973C97.5419 62.0495 101.896 62.0495 104.583 60.4973C105.161 60.1816 105.666 59.7471 106.064 59.2226C106.4 58.7823 106.587 58.2462 106.597 57.6924V54.6292C106.587 55.183 106.4 55.7192 106.064 56.1594Z" fill="#EBEBEB"/>
<path d="M106.064 53.0962C105.665 53.6211 105.161 54.0563 104.583 54.3737C104.424 54.4643 104.262 54.5468 104.094 54.6292C101.558 55.838 97.8798 55.838 95.3468 54.6292C95.1793 54.5468 95.0144 54.4643 94.8578 54.3737C94.2794 54.0563 93.774 53.6211 93.3743 53.0962C93.0644 52.685 92.8811 52.1924 92.8468 51.6786V54.7418C92.8811 55.2556 93.0644 55.7482 93.3743 56.1594C93.7733 56.6843 94.2789 57.1187 94.8578 57.4341C95.0144 57.5248 95.1793 57.61 95.3468 57.6896C97.8798 58.8984 101.558 58.8984 104.094 57.6896C104.262 57.61 104.424 57.5248 104.583 57.4341C105.161 57.1184 105.666 56.684 106.064 56.1594C106.4 55.7192 106.587 55.183 106.597 54.6292V51.566C106.587 52.1199 106.4 52.6562 106.064 53.0962V53.0962Z" fill="#F5F5F5"/>
<path d="M92.8468 17.9918V51.6786C92.8811 52.1924 93.0644 52.685 93.3743 53.0962C93.774 53.6211 94.2794 54.0563 94.8578 54.3737C95.0144 54.4643 95.1793 54.5468 95.3468 54.6292C96.011 54.9387 96.7102 55.1666 97.4292 55.3078L96.1847 19.805L92.8468 17.9918Z" fill="#F5F5F5"/>
<path d="M103.256 19.805L102.009 55.3078C102.728 55.1665 103.427 54.9387 104.091 54.6292C104.259 54.5468 104.421 54.4643 104.58 54.3737C105.158 54.0563 105.662 53.6211 106.061 53.0962C106.398 52.6562 106.584 52.1199 106.594 51.566V17.8764L103.256 19.805Z" fill="#F5F5F5"/>
<path d="M92.8468 17.9918V51.6786C92.8811 52.1924 93.0644 52.685 93.3743 53.0962C93.774 53.6211 94.2794 54.0563 94.8578 54.3737C95.0144 54.4643 95.1793 54.5468 95.3468 54.6292C96.011 54.9387 96.7102 55.1666 97.4292 55.3078L96.1847 19.805L92.8468 17.9918Z" fill="#E0E0E0"/>
<path d="M103.256 19.805L102.009 55.3078C102.728 55.1665 103.427 54.9387 104.091 54.6292C104.259 54.5468 104.421 54.4643 104.58 54.3737C105.158 54.0563 105.662 53.6211 106.061 53.0962C106.398 52.6562 106.584 52.1199 106.594 51.566V17.8764L103.256 19.805Z" fill="#E0E0E0"/>
<path d="M96.1847 19.805V54.9698C96.5917 55.1105 97.0074 55.2243 97.4293 55.3105C98.1834 55.4629 98.951 55.5393 99.7205 55.5385C100.49 55.5379 101.257 55.4615 102.012 55.3105C102.434 55.2243 102.849 55.1105 103.256 54.9698V19.805H96.1847Z" fill="#EBEBEB"/>
<path d="M101.231 6.0138C101.12 6.07838 101.005 6.13441 100.885 6.18138C100.46 6.37542 99.9931 6.46163 99.5264 6.4324C99.0597 6.40317 98.6074 6.2594 98.2095 6.0138C97.66 5.70062 97.4238 5.27754 97.4869 4.86545L99.0694 0.434133C99.1214 0.304552 99.2115 0.193751 99.3277 0.116284C99.4439 0.0388166 99.5808 -0.00169568 99.7205 6.66754e-05V6.66754e-05C99.8605 -0.00187259 99.9978 0.0385317 100.115 0.115986C100.231 0.193441 100.322 0.304334 100.374 0.434133L101.94 4.78578C102.047 5.21985 101.808 5.68138 101.231 6.0138Z" fill="#E0E0E0"/>
<path d="M104.583 63.5605C102.275 64.8929 98.7369 65.077 96.0831 64.1099C95.9347 64.0587 95.7891 64.001 95.6463 63.9369L95.4485 63.8545C95.2424 63.761 95.0446 63.6594 94.8578 63.5523C93.5639 62.805 92.8963 61.8352 92.8468 60.8572V69.2034C92.7974 70.2583 93.465 71.3215 94.8578 72.1237C95.0227 72.2198 95.1957 72.3105 95.3743 72.3984C95.4402 72.4314 95.5117 72.4561 95.5776 72.4863C95.693 72.5358 95.8056 72.588 95.9238 72.6319C96.0419 72.6759 96.1078 72.6979 96.1985 72.7281C96.2891 72.7583 96.3935 72.7995 96.4952 72.8297C96.5968 72.86 96.7205 72.8929 96.8331 72.9231C96.9457 72.9534 97.0062 72.9726 97.0941 72.9918C97.182 73.011 97.3551 73.0495 97.4869 73.0742C97.5611 73.0742 97.6353 73.1072 97.7095 73.1182C97.8578 73.1457 98.0089 73.1649 98.16 73.1869L98.3386 73.2116C98.5062 73.2308 98.6738 73.2446 98.8413 73.2556H98.9732C99.1573 73.2693 99.3413 73.2748 99.5227 73.2775H99.6106C99.8084 73.2775 100.006 73.2775 100.204 73.2775H100.248C100.457 73.2775 100.666 73.2528 100.874 73.2336C102.098 73.1297 103.29 72.7881 104.383 72.2281V72.2281C104.443 72.1951 104.506 72.1676 104.567 72.1319C105.907 71.3572 106.58 70.3407 106.58 69.3242V60.7528C106.597 61.7693 105.924 62.7858 104.583 63.5605Z" fill="#E0E0E0"/>
<path d="M21.6463 68.4286C20.8523 68.2281 16.6133 65.816 16.182 65.522C15.7507 65.2281 14.899 64.6209 14.899 63.5742C14.899 62.6484 14.9952 53.9176 15.7534 49.7006C16.0025 48.3888 16.5173 47.1418 17.2662 46.0363C18.015 44.9307 18.982 43.99 20.1078 43.272C22.7452 41.6374 25.3963 40.4534 27.6298 41.3819C29.8633 42.3105 31.9018 44.0165 32.7809 46.077C33.66 48.1374 34.2617 52.2638 34.3249 53.86C34.388 55.4561 34.3249 60.9286 34.3249 61.4149C34.3249 61.9012 34.2369 62.533 31.6188 64.1622C29.0007 65.7913 25.3853 67.7336 24.2672 68.2363C23.4355 68.5744 22.5184 68.6417 21.6463 68.4286V68.4286Z" fill="#37474F"/>
<path d="M20.9924 44.4067C20.7507 44.544 20.0529 44.2006 19.9485 44.0275C19.8441 43.8545 19.8166 42.3572 20.3386 41.5303C20.8606 40.7034 24.1161 39.1786 24.921 39.2913C25.2225 39.3404 25.5108 39.4505 25.7682 39.6149C26.0257 39.7793 26.2469 39.9945 26.4183 40.2473C26.5172 40.4589 26.6271 41.8517 26.4183 42.1374C26.2095 42.4231 25.465 41.9836 25.399 41.8627C25.3331 41.7418 25.6435 40.7226 25.1243 40.5111C24.6463 40.3188 22.3771 41.283 21.454 42.0578C21.0529 42.3957 21.0721 43.2336 21.0913 43.6484C21.1106 44.0633 21.1133 44.3352 20.9924 44.4067Z" fill="#455A64"/>
<path d="M20.3386 54.2363C20.8056 49.7006 21.6463 47.0523 26.0831 45.077C30.5199 43.1017 32.2424 44.783 32.8716 46.2968C33.6957 48.4176 34.2644 52.3187 34.3249 53.86C34.388 55.4561 34.3249 60.9286 34.3249 61.4149C34.3249 61.9012 34.2369 62.533 31.6188 64.1621C29.0007 65.7913 25.3853 67.7336 24.2672 68.2363C23.4364 68.5771 22.5193 68.6473 21.6463 68.4369C21.471 68.3835 21.3001 68.3165 21.1353 68.2363C19.7534 66.4616 19.91 58.3792 20.3386 54.2363Z" fill="#455A64"/>
<path d="M30.682 43.305C29.5227 42.6264 27.6216 42.1786 24.8304 43.4231C19.8413 45.6457 18.5749 48.4286 18.0721 53.3133C17.9815 54.2089 17.8468 55.2748 17.7974 56.4204L17.3853 56.1704C17.443 54.9341 17.5639 53.8764 17.66 52.9204C18.2095 48.0001 19.6848 45.2803 24.4512 43.1567C27.0913 41.9808 28.8249 42.1347 29.9732 42.7144C30.2198 42.8985 30.4564 43.0957 30.682 43.305Z" fill="#263238"/>
<path d="M30.8551 43.4314C29.6985 42.7528 27.7946 42.305 25.0062 43.5495C20.0144 45.772 18.7479 48.555 18.2452 53.4396C18.1545 54.3352 18.0199 55.4012 17.9705 56.5468L17.5584 56.2968C17.6161 55.0605 17.7369 54.0028 17.8331 53.0468C18.3826 48.1264 19.8578 45.4039 24.6243 43.283C27.2644 42.1072 29.0446 42.3023 30.193 42.8792C30.4239 43.0507 30.6449 43.235 30.8551 43.4314V43.4314Z" fill="#455A64"/>
<path d="M29.2397 47.7446L27.7315 46.8819C27.657 46.8402 27.5691 46.8294 27.4868 46.8521C27.4045 46.8747 27.3345 46.9289 27.2919 47.0028L25.7452 49.6924C25.7021 49.7664 25.69 49.8545 25.7117 49.9373C25.7333 50.0202 25.7868 50.0912 25.8606 50.1347L27.3496 51.0028C27.4236 51.0459 27.5117 51.058 27.5945 51.0363C27.6774 51.0147 27.7484 50.9612 27.7919 50.8874L29.3578 48.1814C29.3793 48.1451 29.3933 48.1049 29.399 48.0631C29.4046 48.0213 29.4019 47.9788 29.3909 47.9381C29.3799 47.8974 29.3608 47.8593 29.3349 47.826C29.3089 47.7928 29.2765 47.7651 29.2397 47.7446V47.7446Z" fill="#263238"/>
<path d="M27.6216 50.6951L29.1078 48.1319C29.1185 48.1136 29.1255 48.0933 29.1282 48.0722C29.131 48.0512 29.1295 48.0298 29.1239 48.0093C29.1182 47.9888 29.1086 47.9697 29.0954 47.953C29.0823 47.9363 29.066 47.9224 29.0474 47.9121L27.6738 47.1319C27.6365 47.111 27.5926 47.1057 27.5515 47.117C27.5103 47.1283 27.4753 47.1554 27.454 47.1924L25.9842 49.7446C25.9633 49.7818 25.9579 49.8257 25.9693 49.8669C25.9806 49.908 26.0077 49.943 26.0446 49.9643L27.3935 50.7528C27.4121 50.7646 27.4329 50.7724 27.4547 50.7759C27.4764 50.7794 27.4986 50.7784 27.5199 50.773C27.5413 50.7676 27.5613 50.7579 27.5788 50.7445C27.5962 50.7311 27.6108 50.7143 27.6216 50.6951V50.6951Z" fill="#455A64"/>
<path d="M27.9402 49.4699C27.9798 49.4459 28.0134 49.4131 28.0381 49.374C28.0629 49.3349 28.0783 49.2906 28.0831 49.2446V48.0166C28.0831 47.9369 28.0199 47.9122 27.9402 47.9561C27.9006 47.9801 27.8671 48.0129 27.8423 48.052C27.8176 48.0911 27.8022 48.1354 27.7974 48.1814V49.4094C27.7974 49.4891 27.8606 49.5138 27.9402 49.4699Z" fill="#37474F"/>
<path d="M27.1435 49.9314C27.1831 49.9067 27.2165 49.8733 27.2412 49.8338C27.266 49.7943 27.2814 49.7497 27.2864 49.7034V48.4781C27.2864 48.3984 27.2205 48.3709 27.1435 48.4176C27.1037 48.4413 27.0699 48.474 27.0451 48.5131C27.0203 48.5523 27.005 48.5968 27.0007 48.6429V49.8709C27.0089 49.9479 27.0639 49.9753 27.1435 49.9314Z" fill="#37474F"/>
<path d="M22.3935 58.0715C22.3935 58.0715 23.1408 58.6869 23.6793 61.0056C24.2177 63.3242 24.5419 66.2446 23.954 66.5962C23.3661 66.9479 22.5172 66.2116 22.3056 65.9589C21.8716 65.4396 21.9787 59.9286 22.3935 58.0715Z" fill="#263238"/>
<path d="M22.3935 58.0715C22.3935 58.0715 23.1408 58.6869 23.6793 61.0056C24.2177 63.3242 24.5419 66.2446 23.954 66.5962L33.0199 61.2501C33.6133 60.8984 33.7589 57.8297 33.2232 55.511C32.8688 53.9863 32.2177 53.261 31.8166 52.9424C31.7246 52.8713 31.6134 52.8294 31.4974 52.822C31.3813 52.8147 31.2658 52.8422 31.1655 52.9012L22.3935 58.0715Z" fill="#37474F"/>
<path d="M31.6298 53.2968C32.0639 53.5111 32.8001 54.1017 33.1326 55.6704C33.1886 55.8839 33.1836 56.1089 33.118 56.3197C33.0524 56.5305 32.929 56.7186 32.7617 56.8627C32.4595 57.077 25.9705 60.7666 25.1106 61.2803C24.3688 61.7226 23.9842 61.1347 23.8221 60.7666C23.5474 60.1127 23.3111 59.6045 23.1078 59.2144C22.9526 58.7889 22.7102 58.4006 22.3963 58.0742L31.0419 53.3215C31.1304 53.2695 31.2303 53.2401 31.3328 53.2358C31.4353 53.2315 31.5373 53.2524 31.6298 53.2968V53.2968Z" fill="#263238"/>
<path d="M18.0776 56.8023C18.2032 57.2745 18.285 57.7573 18.3221 58.2446C18.3221 58.3435 18.1875 58.3957 18.149 58.3957C17.8349 58.3325 17.5441 58.1842 17.3084 57.9671C17.3524 57.5518 17.4277 57.1403 17.5337 56.7363L18.0776 56.8023Z" fill="#263238"/>
<path d="M18.3578 56.4149C18.3578 56.3111 18.3271 56.2097 18.2694 56.1234C18.2117 56.0371 18.1298 55.9698 18.0339 55.9301C17.938 55.8904 17.8325 55.88 17.7307 55.9003C17.6289 55.9205 17.5354 55.9705 17.4621 56.0439C17.3887 56.1172 17.3387 56.2107 17.3185 56.3125C17.2982 56.4143 17.3086 56.5198 17.3483 56.6157C17.388 56.7116 17.4553 56.7935 17.5416 56.8512C17.6279 56.9088 17.7293 56.9396 17.8331 56.9396C17.9723 56.9396 18.1057 56.8843 18.2041 56.7859C18.3025 56.6875 18.3578 56.5541 18.3578 56.4149V56.4149Z" fill="#263238"/>
<path d="M24.921 40.4863C25.4952 40.4314 26.0364 40.4863 26.1738 41.0605C26.3111 41.6347 26.2617 42.1594 26.1738 42.2308C25.8828 42.194 25.6114 42.065 25.399 41.8627C25.3331 41.7391 25.6435 40.7226 25.1243 40.5111C25.0606 40.4899 24.9934 40.4815 24.9265 40.4863H24.921Z" fill="#263238"/>
<path d="M31.2205 52.8709C31.3093 52.8185 31.4097 52.7888 31.5127 52.7845C31.6157 52.7802 31.7182 52.8014 31.8111 52.8462C32.2452 53.0605 32.9815 53.6512 33.3139 55.2198C33.3696 55.4334 33.3644 55.6583 33.2988 55.869C33.2333 56.0797 33.11 56.2679 32.943 56.4122C32.6408 56.6264 26.1545 60.316 25.2946 60.8297C24.5529 61.272 24.1655 60.6841 24.0034 60.316C23.1051 58.4369 22.3935 58.0715 22.3935 58.0715L31.2205 52.8709Z" fill="#37474F"/>
<path d="M29.6655 84.8325L22.3908 80.6347C22.2008 80.5104 22.0427 80.3432 21.9291 80.1466C21.8156 79.95 21.7498 79.7295 21.7369 79.5028V79.5852C21.7493 79.3585 21.815 79.1378 21.9286 78.9411C22.0422 78.7445 22.2005 78.5774 22.3908 78.4534L37.0199 70.0083C37.222 69.9053 37.4456 69.8516 37.6724 69.8516C37.8992 69.8516 38.1228 69.9053 38.3249 70.0083L45.5996 74.2089C45.7901 74.332 45.9487 74.4985 46.0624 74.6948C46.176 74.891 46.2415 75.1115 46.2534 75.338V75.2556C46.2414 75.4821 46.1761 75.7026 46.063 75.8992C45.9499 76.0959 45.7921 76.2631 45.6023 76.3874L30.9732 84.8325C30.7707 84.9355 30.5466 84.9892 30.3194 84.9892C30.0921 84.9892 29.8681 84.9355 29.6655 84.8325V84.8325Z" fill="#BA68C8"/>
<path opacity="0.7" d="M29.6655 84.8325L22.3908 80.6347C22.2008 80.5104 22.0427 80.3432 21.9291 80.1466C21.8156 79.95 21.7498 79.7295 21.7369 79.5028V79.5852C21.7493 79.3585 21.815 79.1378 21.9286 78.9411C22.0422 78.7445 22.2005 78.5774 22.3908 78.4534L37.0199 70.0083C37.222 69.9053 37.4456 69.8516 37.6724 69.8516C37.8992 69.8516 38.1228 69.9053 38.3249 70.0083L45.5996 74.2089C45.7901 74.332 45.9487 74.4985 46.0624 74.6948C46.176 74.891 46.2415 75.1115 46.2534 75.338V75.2556C46.2414 75.4821 46.1761 75.7026 46.063 75.8992C45.9499 76.0959 45.7921 76.2631 45.6023 76.3874L30.9732 84.8325C30.7707 84.9355 30.5466 84.9892 30.3194 84.9892C30.0921 84.9892 29.8681 84.9355 29.6655 84.8325V84.8325Z" fill="black"/>
<path d="M30.3056 73.8764L22.3798 78.4534C22.1895 78.5774 22.0312 78.7445 21.9176 78.9412C21.804 79.1378 21.7383 79.3585 21.726 79.5852V79.5028C21.7388 79.7295 21.8046 79.95 21.9182 80.1466C22.0317 80.3432 22.1898 80.5104 22.3798 80.6347L29.6545 84.8325C29.8556 84.9395 30.0806 84.9934 30.3084 84.9891L30.3056 73.8764Z" fill="#BA68C8"/>
<path opacity="0.7" d="M30.3056 73.8764L22.3798 78.4534C22.1895 78.5774 22.0312 78.7445 21.9176 78.9412C21.804 79.1378 21.7383 79.3585 21.726 79.5852V79.5028C21.7388 79.7295 21.8046 79.95 21.9182 80.1466C22.0317 80.3432 22.1898 80.5104 22.3798 80.6347L29.6545 84.8325C29.8556 84.9395 30.0806 84.9934 30.3084 84.9891L30.3056 73.8764Z" fill="black"/>
<path d="M22.388 79.2089L29.66 83.4094C29.863 83.511 30.0869 83.5638 30.3139 83.5638C30.5409 83.5638 30.7647 83.511 30.9677 83.4094L45.5968 74.9616C45.9595 74.7528 45.9595 74.4122 45.5968 74.2089L38.3221 70.0083C38.12 69.9053 37.8964 69.8516 37.6696 69.8516C37.4428 69.8516 37.2192 69.9053 37.0172 70.0083L22.388 78.4534C22.0254 78.6622 22.0254 79.0001 22.388 79.2089Z" fill="#BA68C8"/>
<path opacity="0.5" d="M22.388 79.2089L29.66 83.4094C29.863 83.511 30.0869 83.5638 30.3139 83.5638C30.5409 83.5638 30.7647 83.511 30.9677 83.4094L45.5968 74.9616C45.9595 74.7528 45.9595 74.4122 45.5968 74.2089L38.3221 70.0083C38.12 69.9053 37.8964 69.8516 37.6696 69.8516C37.4428 69.8516 37.2192 69.9053 37.0172 70.0083L22.388 78.4534C22.0254 78.6622 22.0254 79.0001 22.388 79.2089Z" fill="black"/>
<path d="M22.388 77.827V78.5248L29.9375 82.8847C30.0524 82.9507 30.1827 82.9855 30.3152 82.9855C30.4478 82.9855 30.5781 82.9507 30.693 82.8847L45.5968 74.2775V73.5578L30.3139 80.9754L22.388 77.827Z" fill="#BA68C8"/>
<path d="M29.6628 82.0275L22.388 77.827C22.1975 77.7033 22.0389 77.5363 21.9252 77.3396C21.8116 77.1428 21.7461 76.922 21.7342 76.6951V75.3517C21.7461 75.1248 21.8116 74.904 21.9252 74.7073C22.0389 74.5106 22.1975 74.3435 22.388 74.2199L37.0172 65.7721C37.2192 65.6691 37.4428 65.6154 37.6696 65.6154C37.8964 65.6154 38.12 65.6691 38.3221 65.7721L45.5968 69.9726C45.7874 70.0963 45.946 70.2633 46.0596 70.46C46.1733 70.6568 46.2387 70.8776 46.2507 71.1045V72.4506C46.2369 72.6726 46.1704 72.8881 46.0567 73.0792C45.943 73.2703 45.7854 73.4315 45.5968 73.5495L30.9677 82.0193C30.7663 82.1236 30.543 82.1787 30.3162 82.1801C30.0894 82.1816 29.8655 82.1293 29.6628 82.0275Z" fill="#BA68C8"/>
<path opacity="0.6" d="M29.6628 82.0275L22.388 77.827C22.1975 77.7033 22.0389 77.5363 21.9252 77.3396C21.8116 77.1428 21.7461 76.922 21.7342 76.6951V75.3517C21.7461 75.1248 21.8116 74.904 21.9252 74.7073C22.0389 74.5106 22.1975 74.3435 22.388 74.2199L37.0172 65.7721C37.2192 65.6691 37.4428 65.6154 37.6696 65.6154C37.8964 65.6154 38.12 65.6691 38.3221 65.7721L45.5968 69.9726C45.7874 70.0963 45.946 70.2633 46.0596 70.46C46.1733 70.6568 46.2387 70.8776 46.2507 71.1045V72.4506C46.2369 72.6726 46.1704 72.8881 46.0567 73.0792C45.943 73.2703 45.7854 73.4315 45.5968 73.5495L30.9677 82.0193C30.7663 82.1236 30.543 82.1787 30.3162 82.1801C30.0894 82.1816 29.8655 82.1293 29.6628 82.0275Z" fill="black"/>
<path d="M30.3056 69.6429L22.3798 74.2199C22.1892 74.3435 22.0306 74.5106 21.917 74.7073C21.8034 74.904 21.7379 75.1248 21.726 75.3517V76.6951C21.7379 76.922 21.8034 77.1428 21.917 77.3396C22.0306 77.5363 22.1892 77.7033 22.3798 77.827L29.6545 82.0275C29.8545 82.1349 30.0787 82.1888 30.3056 82.1841V69.6429Z" fill="#BA68C8"/>
<path opacity="0.7" d="M30.3056 69.6429L22.3798 74.2199C22.1892 74.3435 22.0306 74.5106 21.917 74.7073C21.8034 74.904 21.7379 75.1248 21.726 75.3517V76.6951C21.7379 76.922 21.8034 77.1428 21.917 77.3396C22.0306 77.5363 22.1892 77.7033 22.3798 77.827L29.6545 82.0275C29.8545 82.1349 30.0787 82.1888 30.3056 82.1841V69.6429Z" fill="black"/>
<path d="M22.388 74.9726L29.66 79.1732C29.8626 79.2762 30.0866 79.3299 30.3139 79.3299C30.5411 79.3299 30.7652 79.2762 30.9677 79.1732L45.5968 70.7281C45.9595 70.5193 45.9595 70.1786 45.5968 69.9726L38.3221 65.7721C38.12 65.6691 37.8964 65.6154 37.6696 65.6154C37.4428 65.6154 37.2192 65.6691 37.0172 65.7721L22.388 74.2199C22.0254 74.4286 22.0254 74.7666 22.388 74.9726Z" fill="#BA68C8"/>
<path opacity="0.5" d="M22.388 74.9726L29.66 79.1732C29.8626 79.2762 30.0866 79.3299 30.3139 79.3299C30.5411 79.3299 30.7652 79.2762 30.9677 79.1732L45.5968 70.7281C45.9595 70.5193 45.9595 70.1786 45.5968 69.9726L38.3221 65.7721C38.12 65.6691 37.8964 65.6154 37.6696 65.6154C37.4428 65.6154 37.2192 65.6691 37.0172 65.7721L22.388 74.2199C22.0254 74.4286 22.0254 74.7666 22.388 74.9726Z" fill="black"/>
<path d="M32.5337 71.6347C31.7287 72.1017 31.7287 72.8517 32.5337 73.3133C32.9863 73.5408 33.4858 73.6594 33.9924 73.6594C34.499 73.6594 34.9986 73.5408 35.4512 73.3133C36.2562 72.8517 36.2562 72.1017 35.4512 71.6347C34.999 71.4058 34.4993 71.2866 33.9924 71.2866C33.4856 71.2866 32.9859 71.4058 32.5337 71.6347V71.6347Z" fill="#BA68C8"/>
<path d="M44.4128 72.1265C44.3381 72.1753 44.2761 72.241 44.2317 72.3184C44.1873 72.3957 44.1618 72.4824 44.1573 72.5715C44.1573 72.7363 44.2727 72.805 44.4128 72.7254C44.4874 72.6765 44.5495 72.6108 44.5939 72.5335C44.6383 72.4561 44.6638 72.3694 44.6683 72.2803C44.6683 72.1155 44.5529 72.0468 44.4128 72.1265Z" fill="#BA68C8"/>
<path d="M44.4128 73.1127C44.3381 73.1615 44.2761 73.2273 44.2317 73.3046C44.1873 73.382 44.1618 73.4687 44.1573 73.5578C44.1573 73.7226 44.2727 73.7913 44.4128 73.7116C44.4884 73.6638 44.5511 73.5983 44.5957 73.5207C44.6402 73.4432 44.6651 73.3559 44.6683 73.2666C44.6683 73.1017 44.5529 73.033 44.4128 73.1127Z" fill="#BA68C8"/>
<path d="M26.6161 90.3847C26.5825 90.3846 26.5494 90.3761 26.5199 90.36L19.4705 86.2638C19.2879 86.1581 19.1364 86.0062 19.0311 85.8235C18.9258 85.6408 18.8703 85.4335 18.8703 85.2226C18.8703 85.0117 18.9258 84.8045 19.0311 84.6217C19.1364 84.439 19.2879 84.2871 19.4705 84.1814L24.638 81.1979C24.6819 81.1756 24.7326 81.171 24.7798 81.185C24.8269 81.199 24.8669 81.2305 24.8915 81.2731C24.9162 81.3156 24.9235 81.366 24.9122 81.4139C24.9008 81.4617 24.8715 81.5034 24.8304 81.5303L19.6655 84.5056C19.5425 84.5786 19.4407 84.6823 19.3699 84.8065C19.2991 84.9308 19.2619 85.0714 19.2619 85.2144C19.2619 85.3574 19.2991 85.4979 19.3699 85.6222C19.4407 85.7465 19.5425 85.8502 19.6655 85.9232L26.715 90.0138C26.7387 90.0262 26.7595 90.0435 26.776 90.0645C26.7925 90.0855 26.8045 90.1098 26.8109 90.1358C26.8174 90.1617 26.8183 90.1887 26.8136 90.2151C26.8089 90.2414 26.7987 90.2664 26.7836 90.2885C26.7671 90.3183 26.7428 90.343 26.7133 90.36C26.6837 90.3769 26.6501 90.3855 26.6161 90.3847V90.3847Z" fill="#BA68C8"/>
<path d="M35.4457 86.4286L33.9183 80.2968C33.8965 80.2122 33.868 80.1296 33.8331 80.0495L34.2782 79.9863L33.3084 79.4369C33.1049 79.3263 32.8751 79.2732 32.6438 79.2834C32.4124 79.2936 32.1882 79.3666 31.9952 79.4946L25.6353 83.1759C25.1987 83.4618 24.8355 83.8466 24.5754 84.2991C24.3153 84.7516 24.1654 85.2591 24.138 85.7803V93.1539C24.138 93.7418 24.2809 94.1457 24.5749 94.2858L25.4869 94.8133L25.2672 94.2308L25.3166 94.2116C26.3633 93.7116 26.7424 92.7995 27.0556 91.8957L28.2672 88.3929C28.5804 87.4891 29.3661 86.4534 30.0089 86.077C30.6518 85.7006 31.5694 86.077 32.0419 86.9012L32.6518 87.9671C32.838 88.3054 33.1186 88.5823 33.4595 88.7638L34.388 89.3133L34.1518 88.9451C34.3449 88.9456 34.5346 88.8943 34.7012 88.7968C35.3358 88.4176 35.6765 87.3627 35.4457 86.4286Z" fill="#BA68C8"/>
<path opacity="0.7" d="M35.4457 86.4286L33.9183 80.2968C33.8965 80.2122 33.868 80.1296 33.8331 80.0495L34.2782 79.9863L33.3084 79.4369C33.1049 79.3263 32.8751 79.2732 32.6438 79.2834C32.4124 79.2936 32.1882 79.3666 31.9952 79.4946L25.6353 83.1759C25.1987 83.4618 24.8355 83.8466 24.5754 84.2991C24.3153 84.7516 24.1654 85.2591 24.138 85.7803V93.1539C24.138 93.7418 24.2809 94.1457 24.5749 94.2858L25.4869 94.8133L25.2672 94.2308L25.3166 94.2116C26.3633 93.7116 26.7424 92.7995 27.0556 91.8957L28.2672 88.3929C28.5804 87.4891 29.3661 86.4534 30.0089 86.077C30.6518 85.7006 31.5694 86.077 32.0419 86.9012L32.6518 87.9671C32.838 88.3054 33.1186 88.5823 33.4595 88.7638L34.388 89.3133L34.1518 88.9451C34.3449 88.9456 34.5346 88.8943 34.7012 88.7968C35.3358 88.4176 35.6765 87.3627 35.4457 86.4286Z" fill="black"/>
<path d="M33.8331 80.0495L34.2782 79.9863L33.3084 79.4369C33.1049 79.3263 32.8751 79.2732 32.6438 79.2834C32.4124 79.2936 32.1882 79.3666 31.9952 79.4946L25.6353 83.1759C25.2801 83.3973 24.9765 83.6924 24.7452 84.0413L26.2589 84.9643L34.0007 80.5907L33.9265 80.2968C33.902 80.212 33.8708 80.1293 33.8331 80.0495V80.0495Z" fill="#BA68C8"/>
<path opacity="0.5" d="M33.8331 80.0495L34.2782 79.9863L33.3084 79.4369C33.1049 79.3263 32.8751 79.2732 32.6438 79.2834C32.4124 79.2936 32.1882 79.3666 31.9952 79.4946L25.6353 83.1759C25.2801 83.3973 24.9765 83.6924 24.7452 84.0413L26.2589 84.9643L34.0007 80.5907L33.9265 80.2968C33.902 80.212 33.8708 80.1293 33.8331 80.0495V80.0495Z" fill="black"/>
<path d="M35.671 89.3682C35.0199 89.7446 34.1051 89.3682 33.6298 88.544L33.0227 87.4781C32.5474 86.6539 31.649 86.2775 30.9869 86.6539C30.3249 87.0303 29.5584 88.0633 29.2452 88.9698L28.0364 92.4698C27.7232 93.3737 27.3413 94.2858 26.2946 94.7858C25.5034 95.1649 25.1216 94.6869 25.1216 93.7308V86.3517C25.1499 85.8308 25.3004 85.3238 25.561 84.8718C25.8216 84.4199 26.1849 84.0356 26.6216 83.7501L32.9924 80.055C33.1641 79.9348 33.3635 79.8604 33.5719 79.8388C33.7803 79.8173 33.9908 79.8493 34.1834 79.9318C34.376 80.0144 34.5443 80.1447 34.6724 80.3105C34.8005 80.4763 34.8842 80.672 34.9155 80.8792L36.443 87.0138C36.6683 87.9314 36.3249 88.9918 35.671 89.3682Z" fill="#BA68C8"/>
<path opacity="0.6" d="M35.671 89.3682C35.0199 89.7446 34.1051 89.3682 33.6298 88.544L33.0227 87.4781C32.5474 86.6539 31.649 86.2775 30.9869 86.6539C30.3249 87.0303 29.5584 88.0633 29.2452 88.9698L28.0364 92.4698C27.7232 93.3737 27.3413 94.2858 26.2946 94.7858C25.5034 95.1649 25.1216 94.6869 25.1216 93.7308V86.3517C25.1499 85.8308 25.3004 85.3238 25.561 84.8718C25.8216 84.4199 26.1849 84.0356 26.6216 83.7501L32.9924 80.055C33.1641 79.9348 33.3635 79.8604 33.5719 79.8388C33.7803 79.8173 33.9908 79.8493 34.1834 79.9318C34.376 80.0144 34.5443 80.1447 34.6724 80.3105C34.8005 80.4763 34.8842 80.672 34.9155 80.8792L36.443 87.0138C36.6683 87.9314 36.3249 88.9918 35.671 89.3682Z" fill="black"/>
<path d="M33.2012 82.1786L33.3606 83.0825L34.0666 82.6319L34.2232 83.5358L33.5199 83.9891L33.6793 84.8929L32.976 85.3435L32.8166 84.4396L32.1133 84.8929L31.954 83.9863L32.6573 83.5358L32.4979 82.6319L33.2012 82.1786Z" fill="#263238"/>
<path d="M33.4045 82.2858L33.5639 83.1896L34.2672 82.7391L34.4265 83.6429L33.7232 84.0962L33.8826 85.0001L33.1793 85.4506L33.0199 84.5468L32.3166 84.9973L32.1573 84.0935L32.8606 83.6429L32.7012 82.7391L33.4045 82.2858Z" fill="#BA68C8"/>
<path d="M27.8716 85.3792C27.8904 85.5065 27.8748 85.6366 27.8265 85.7559C27.7782 85.8752 27.6989 85.9794 27.5968 86.0578C27.4018 86.1814 27.2095 86.0798 27.1655 85.8298C27.1458 85.7024 27.161 85.5721 27.2093 85.4526C27.2577 85.3331 27.3375 85.229 27.4402 85.1512C27.6326 85.0276 27.8331 85.1292 27.8716 85.3792Z" fill="#263238"/>
<path d="M28.1902 87.1869C28.2099 87.3143 28.1948 87.4446 28.1464 87.564C28.0981 87.6835 28.0183 87.7877 27.9155 87.8655C27.7205 87.9891 27.5282 87.8874 27.4842 87.6402C27.4642 87.5128 27.4792 87.3824 27.5276 87.2629C27.576 87.1433 27.6559 87.0392 27.7589 86.9616C27.9512 86.8352 28.1463 86.9369 28.1902 87.1869Z" fill="#263238"/>
<path d="M28.7342 85.8297C28.7542 85.9571 28.7392 86.0875 28.6908 86.2071C28.6424 86.3266 28.5625 86.4307 28.4595 86.5083C28.2644 86.6347 28.0721 86.533 28.0282 86.283C28.0082 86.1557 28.0232 86.0252 28.0716 85.9057C28.1199 85.7862 28.1999 85.6821 28.3029 85.6045C28.4979 85.4808 28.6902 85.5797 28.7342 85.8297Z" fill="#263238"/>
<path d="M27.3276 86.7336C27.3476 86.861 27.3326 86.9914 27.2842 87.1109C27.2358 87.2304 27.1559 87.3346 27.0529 87.4122C26.8578 87.5385 26.6655 87.4369 26.6216 87.1869C26.6019 87.0595 26.617 86.9292 26.6654 86.8097C26.7137 86.6903 26.7935 86.5861 26.8963 86.5083C27.0913 86.3847 27.2836 86.4836 27.3276 86.7336Z" fill="#263238"/>
<path d="M27.8853 85.3874C27.905 85.5148 27.8898 85.6451 27.8415 85.7646C27.7931 85.884 27.7133 85.9882 27.6106 86.066C27.4155 86.1896 27.2232 86.0907 27.1793 85.8407C27.1593 85.7133 27.1743 85.5829 27.2227 85.4634C27.271 85.3439 27.351 85.2397 27.454 85.1621C27.649 85.0358 27.8331 85.1374 27.8853 85.3874Z" fill="#263238"/>
<path d="M28.204 87.1951C28.224 87.3225 28.209 87.4529 28.1606 87.5725C28.1122 87.692 28.0322 87.7961 27.9293 87.8737C27.7342 88.0001 27.5419 87.8984 27.4979 87.6484C27.4779 87.521 27.4929 87.3906 27.5413 87.2711C27.5897 87.1516 27.6697 87.0475 27.7727 86.9699C27.9677 86.8462 28.16 86.9451 28.204 87.1951Z" fill="#263238"/>
<path d="M28.7479 85.8407C28.7674 85.9677 28.7521 86.0976 28.7038 86.2165C28.6554 86.3355 28.5757 86.4392 28.4732 86.5166C28.2809 86.6429 28.0858 86.5413 28.0419 86.2913C28.0228 86.1639 28.0382 86.0338 28.0865 85.9145C28.1349 85.7951 28.2143 85.6909 28.3166 85.6127C28.5117 85.4891 28.704 85.5907 28.7479 85.8407Z" fill="#263238"/>
<path d="M27.3413 86.7446C27.361 86.8719 27.3459 87.0023 27.2975 87.1217C27.2492 87.2412 27.1694 87.3453 27.0666 87.4231C26.8743 87.5468 26.6793 87.4451 26.6353 87.1951C26.6165 87.0678 26.6321 86.9378 26.6804 86.8185C26.7287 86.6992 26.8079 86.5949 26.91 86.5166C27.1051 86.3929 27.2974 86.4946 27.3413 86.7446Z" fill="#263238"/>
<path d="M27.899 85.3957C27.919 85.5231 27.904 85.6535 27.8556 85.773C27.8073 85.8925 27.7273 85.9967 27.6243 86.0743C27.432 86.2006 27.2369 86.099 27.193 85.849C27.1739 85.7216 27.1893 85.5915 27.2376 85.4722C27.286 85.3528 27.3654 85.2486 27.4677 85.1704C27.6628 85.0468 27.8551 85.1457 27.899 85.3957Z" fill="#263238"/>
<path d="M28.2177 87.2061C28.2372 87.3331 28.2219 87.4629 28.1736 87.5819C28.1252 87.7009 28.0455 87.8046 27.943 87.882C27.7507 88.0083 27.5556 87.9067 27.5117 87.6567C27.4926 87.5293 27.508 87.3992 27.5563 87.2798C27.6046 87.1605 27.6841 87.0563 27.7864 86.9781C27.9815 86.8545 28.1738 86.9561 28.2177 87.2061Z" fill="#263238"/>
<path d="M28.7644 85.849C28.7835 85.9763 28.7681 86.1064 28.7198 86.2258C28.6715 86.3451 28.592 86.4493 28.4897 86.5275C28.2946 86.6512 28.1023 86.5495 28.0584 86.3023C28.0384 86.1749 28.0534 86.0445 28.1018 85.9249C28.1502 85.8054 28.2301 85.7013 28.3331 85.6237C28.5254 85.4973 28.7205 85.599 28.7644 85.849Z" fill="#263238"/>
<path d="M27.3578 86.7528C27.3769 86.8802 27.3615 87.0103 27.3132 87.1296C27.2649 87.249 27.1854 87.3532 27.0831 87.4314C26.888 87.555 26.6957 87.4561 26.6518 87.2061C26.6318 87.0787 26.6468 86.9483 26.6952 86.8288C26.7436 86.7093 26.8235 86.6051 26.9265 86.5275C27.1188 86.4012 27.3139 86.5028 27.3578 86.7528Z" fill="#263238"/>
<path d="M27.9155 85.4067C27.9346 85.534 27.9192 85.6641 27.8709 85.7835C27.8225 85.9028 27.7431 86.007 27.6408 86.0852C27.4457 86.2089 27.2534 86.1072 27.2095 85.8572C27.19 85.7303 27.2053 85.6004 27.2536 85.4814C27.302 85.3624 27.3817 85.2588 27.4842 85.1814C27.6765 85.055 27.8716 85.1649 27.9155 85.4067Z" fill="#263238"/>
<path d="M28.2342 87.2144C28.2533 87.3417 28.2379 87.4718 28.1895 87.5912C28.1412 87.7105 28.0618 87.8147 27.9595 87.8929C27.7644 88.0166 27.5721 87.9176 27.5282 87.6676C27.5082 87.5403 27.5232 87.4098 27.5716 87.2903C27.6199 87.1708 27.6999 87.0667 27.8029 86.9891C27.9952 86.8627 28.1902 86.9644 28.2342 87.2144Z" fill="#263238"/>
<path d="M28.7782 85.8572C28.7981 85.9846 28.7831 86.115 28.7348 86.2345C28.6864 86.3541 28.6064 86.4582 28.5034 86.5358C28.3084 86.6622 28.1161 86.5605 28.0721 86.3105C28.0524 86.1832 28.0676 86.0528 28.1159 85.9334C28.1643 85.8139 28.2441 85.7098 28.3468 85.632C28.5419 85.5083 28.7342 85.6072 28.7782 85.8572Z" fill="#263238"/>
<path d="M27.3716 86.7611C27.3916 86.8885 27.3765 87.0189 27.3282 87.1384C27.2798 87.2579 27.1998 87.362 27.0968 87.4396C26.9018 87.566 26.7095 87.4644 26.6655 87.2144C26.6458 87.087 26.661 86.9567 26.7093 86.8372C26.7577 86.7177 26.8375 86.6136 26.9402 86.5358C27.1353 86.4122 27.3276 86.5111 27.3716 86.7611Z" fill="#263238"/>
<path d="M27.9293 85.4149C27.9489 85.5423 27.9338 85.6726 27.8854 85.7921C27.8371 85.9115 27.7573 86.0157 27.6545 86.0935C27.4595 86.2171 27.2672 86.1182 27.2232 85.8682C27.2032 85.7408 27.2182 85.6104 27.2666 85.4909C27.315 85.3714 27.395 85.2672 27.4979 85.1896C27.693 85.0633 27.8853 85.1649 27.9293 85.4149Z" fill="#263238"/>
<path d="M28.2479 87.2226C28.2679 87.35 28.2529 87.4804 28.2045 87.5999C28.1561 87.7194 28.0762 87.8236 27.9732 87.9012C27.7782 88.0275 27.5858 87.9259 27.5419 87.6759C27.5222 87.5485 27.5373 87.4182 27.5857 87.2987C27.6341 87.1793 27.7139 87.0751 27.8166 86.9973C28.0117 86.8737 28.204 86.9726 28.2479 87.2226Z" fill="#263238"/>
<path d="M28.7919 85.8682C28.8113 85.9956 28.796 86.1258 28.7477 86.2452C28.6993 86.3646 28.6197 86.4688 28.5172 86.5468C28.3221 86.6704 28.1298 86.5688 28.0858 86.3188C28.0662 86.1914 28.0813 86.0611 28.1297 85.9416C28.178 85.8221 28.2578 85.718 28.3606 85.6402C28.5556 85.5166 28.7479 85.6182 28.7919 85.8682Z" fill="#263238"/>
<path d="M27.3853 86.7721C27.405 86.8994 27.3898 87.0297 27.3415 87.1492C27.2931 87.2687 27.2133 87.3728 27.1106 87.4506C26.9183 87.5743 26.7232 87.4726 26.6793 87.2226C26.6604 87.0957 26.6759 86.966 26.7242 86.8471C26.7726 86.7283 26.8519 86.6245 26.954 86.5468C27.149 86.4204 27.3413 86.5221 27.3853 86.7721Z" fill="#263238"/>
<path d="M27.943 85.4231C27.963 85.5505 27.948 85.681 27.8996 85.8005C27.8512 85.92 27.7712 86.0241 27.6683 86.1017C27.476 86.2281 27.2809 86.1264 27.2369 85.8764C27.2179 85.7491 27.2333 85.619 27.2816 85.4996C27.3299 85.3803 27.4094 85.2761 27.5117 85.1979C27.7067 85.0742 27.899 85.1649 27.943 85.4231Z" fill="#263238"/>
<path d="M28.2617 87.2336C28.2811 87.3609 28.2658 87.4912 28.2174 87.6106C28.1691 87.73 28.0895 87.8342 27.9869 87.9122C27.7946 88.0358 27.5996 87.9341 27.5556 87.6841C27.5365 87.5568 27.552 87.4267 27.6003 87.3073C27.6486 87.188 27.7281 87.0838 27.8304 87.0056C28.0254 86.8819 28.2177 86.9836 28.2617 87.2336Z" fill="#263238"/>
<path d="M28.8056 85.8764C28.8253 86.0038 28.8102 86.1341 28.7618 86.2536C28.7134 86.3731 28.6337 86.4772 28.5309 86.555C28.3386 86.6786 28.1435 86.5797 28.0996 86.3297C28.0802 86.2024 28.0955 86.0722 28.1438 85.9527C28.1922 85.8333 28.2718 85.7292 28.3743 85.6512C28.5694 85.5248 28.7617 85.6264 28.8056 85.8764Z" fill="#263238"/>
<path d="M27.4018 86.7803C27.4209 86.9076 27.4055 87.0378 27.3571 87.1571C27.3088 87.2765 27.2294 87.3807 27.1271 87.4589C26.932 87.5825 26.7397 87.4836 26.6957 87.2336C26.6757 87.1062 26.6908 86.9758 26.7391 86.8563C26.7875 86.7367 26.8675 86.6326 26.9705 86.555C27.1628 86.4286 27.3578 86.5385 27.4018 86.7803Z" fill="#263238"/>
<path d="M27.9595 85.4396C27.9786 85.567 27.9631 85.6971 27.9148 85.8165C27.8665 85.9358 27.7871 86.04 27.6848 86.1182C27.4897 86.2418 27.2974 86.1402 27.2534 85.8929C27.2334 85.7655 27.2484 85.6351 27.2968 85.5156C27.3452 85.3961 27.4252 85.292 27.5282 85.2144C27.7205 85.0825 27.9155 85.1841 27.9595 85.4396Z" fill="#263238"/>
<path d="M28.2782 87.2418C28.2972 87.3692 28.2818 87.4993 28.2335 87.6187C28.1852 87.738 28.1057 87.8422 28.0034 87.9204C27.8084 88.044 27.6161 87.9451 27.5721 87.6951C27.5521 87.5677 27.5671 87.4373 27.6155 87.3178C27.6639 87.1983 27.7439 87.0941 27.8468 87.0165C28.0391 86.8902 28.2342 86.9918 28.2782 87.2418Z" fill="#263238"/>
<path d="M28.8221 85.8847C28.8415 86.012 28.8262 86.1423 28.7779 86.2617C28.7295 86.3811 28.6499 86.4853 28.5474 86.5633C28.3523 86.6896 28.16 86.588 28.1161 86.338C28.0964 86.2106 28.1115 86.0803 28.1599 85.9608C28.2083 85.8414 28.288 85.7372 28.3908 85.6594C28.5831 85.5358 28.7782 85.6347 28.8221 85.8847Z" fill="#263238"/>
<path d="M27.4155 86.7885C27.4355 86.9159 27.4205 87.0463 27.3721 87.1659C27.3237 87.2854 27.2438 87.3895 27.1408 87.4671C26.9457 87.5935 26.7534 87.4918 26.7095 87.2418C26.6898 87.1145 26.7049 86.9841 26.7533 86.8647C26.8017 86.7452 26.8814 86.6411 26.9842 86.5633C27.1793 86.4396 27.3716 86.5385 27.4155 86.7885Z" fill="#263238"/>
<path d="M27.9732 85.4396C27.9932 85.567 27.9782 85.6974 27.9298 85.817C27.8814 85.9365 27.8015 86.0406 27.6985 86.1182C27.5034 86.2446 27.3111 86.1429 27.2672 85.8929C27.2472 85.7655 27.2622 85.6351 27.3106 85.5156C27.359 85.3961 27.4389 85.292 27.5419 85.2144C27.7369 85.0907 27.9293 85.1924 27.9732 85.4396Z" fill="#263238"/>
<path d="M28.2919 87.2501C28.3119 87.3774 28.2969 87.5079 28.2485 87.6274C28.2001 87.7469 28.1201 87.851 28.0172 87.9286C27.8221 88.055 27.6298 87.9534 27.5858 87.7034C27.5662 87.576 27.5813 87.4457 27.6297 87.3262C27.678 87.2067 27.7578 87.1026 27.8606 87.0248C28.0556 86.9012 28.2479 87.0001 28.2919 87.2501Z" fill="#263238"/>
<path d="M28.8358 85.8957C28.8555 86.0231 28.8404 86.1534 28.792 86.2728C28.7437 86.3923 28.6639 86.4965 28.5611 86.5743C28.3661 86.6979 28.1738 86.5962 28.1298 86.3462C28.1103 86.2193 28.1256 86.0894 28.174 85.9704C28.2223 85.8514 28.302 85.7478 28.4045 85.6704C28.5996 85.544 28.7919 85.6457 28.8358 85.8957Z" fill="#263238"/>
<path d="M27.4293 86.8133C27.4489 86.9406 27.4338 87.071 27.3854 87.1904C27.3371 87.3099 27.2573 87.414 27.1545 87.4918C26.9622 87.6155 26.7672 87.5138 26.7232 87.2666C26.7032 87.1392 26.7182 87.0087 26.7666 86.8892C26.815 86.7697 26.895 86.6656 26.9979 86.588C27.193 86.4479 27.3853 86.5385 27.4293 86.8133Z" fill="#263238"/>
<path d="M27.9869 85.4534C28.0064 85.5803 27.9912 85.7102 27.9428 85.8292C27.8944 85.9482 27.8147 86.0518 27.7122 86.1292C27.5172 86.2556 27.3249 86.1539 27.2809 85.9039C27.2612 85.7766 27.2764 85.6462 27.3247 85.5268C27.3731 85.4073 27.4529 85.3032 27.5556 85.2254C27.7507 85.1017 27.943 85.2034 27.9869 85.4534Z" fill="#263238"/>
<path d="M28.3056 87.2611C28.3253 87.3884 28.3102 87.5188 28.2618 87.6382C28.2134 87.7577 28.1337 87.8618 28.0309 87.9396C27.8386 88.0633 27.6435 87.9616 27.5996 87.7116C27.5801 87.5847 27.5954 87.4548 27.6437 87.3358C27.6921 87.2168 27.7718 87.1132 27.8743 87.0358C28.0694 86.9094 28.2617 87.0111 28.3056 87.2611Z" fill="#263238"/>
<path d="M28.8496 85.9039C28.8693 86.0313 28.8541 86.1616 28.8058 86.2811C28.7574 86.4005 28.6776 86.5047 28.5749 86.5825C28.3826 86.7061 28.1875 86.6072 28.1435 86.3572C28.1242 86.2299 28.1394 86.0996 28.1878 85.9802C28.2361 85.8608 28.3157 85.7566 28.4183 85.6786C28.6133 85.5523 28.8056 85.6539 28.8496 85.9039Z" fill="#263238"/>
<path d="M27.443 86.8133C27.463 86.9406 27.448 87.0711 27.3996 87.1906C27.3512 87.3101 27.2712 87.4142 27.1683 87.4918C26.976 87.6182 26.7836 87.5166 26.7369 87.2666C26.7176 87.1392 26.7328 87.009 26.7812 86.8896C26.8295 86.7702 26.9091 86.666 27.0117 86.588C27.2067 86.4561 27.399 86.5578 27.443 86.8133Z" fill="#263238"/>
<path d="M28.0007 85.4616C28.0204 85.589 28.0052 85.7193 27.9569 85.8388C27.9085 85.9582 27.8287 86.0624 27.726 86.1402C27.5337 86.2638 27.3386 86.1622 27.2946 85.9149C27.2753 85.7876 27.2905 85.6573 27.3389 85.5379C27.3872 85.4185 27.4668 85.3143 27.5694 85.2363C27.7644 85.11 27.9567 85.2116 28.0007 85.4616Z" fill="#263238"/>
<path d="M28.3194 87.2693C28.3391 87.3967 28.3239 87.527 28.2755 87.6465C28.2272 87.7659 28.1474 87.8701 28.0446 87.9479C27.8523 88.0715 27.66 87.9726 27.6161 87.7226C27.5961 87.5952 27.6111 87.4648 27.6595 87.3453C27.7079 87.2258 27.7878 87.1216 27.8908 87.044C28.0831 86.9177 28.2754 87.0193 28.3194 87.2693Z" fill="#263238"/>
<path d="M28.8661 85.9122C28.8855 86.0395 28.8702 86.1697 28.8218 86.2891C28.7735 86.4085 28.6939 86.5127 28.5913 86.5907C28.3963 86.7171 28.204 86.6154 28.16 86.3654C28.1403 86.2381 28.1555 86.1078 28.2038 85.9883C28.2522 85.8688 28.332 85.7647 28.4347 85.6869C28.6271 85.5633 28.8221 85.6649 28.8661 85.9122Z" fill="#263238"/>
<path d="M27.4595 86.8133C27.4783 86.9402 27.4628 87.0698 27.4145 87.1887C27.3662 87.3076 27.2868 87.4113 27.1847 87.4891C26.9897 87.6155 26.7974 87.5138 26.7534 87.2638C26.7337 87.1364 26.7489 87.0061 26.7973 86.8867C26.8456 86.7672 26.9254 86.663 27.0282 86.5852C27.2205 86.4671 27.4155 86.5688 27.4595 86.8133Z" fill="#263238"/>
<path d="M28.0172 85.4698C28.0366 85.5972 28.0213 85.7274 27.9729 85.8468C27.9246 85.9662 27.845 86.0704 27.7424 86.1484C27.5474 86.2748 27.3551 86.1731 27.3111 85.9231C27.2914 85.7958 27.3066 85.6655 27.3549 85.546C27.4033 85.4265 27.4831 85.3224 27.5858 85.2446C27.7782 85.121 27.9732 85.2198 28.0172 85.4698Z" fill="#263238"/>
<path d="M28.3358 87.2775C28.3552 87.4049 28.34 87.5351 28.2916 87.6545C28.2433 87.7739 28.1636 87.8781 28.0611 87.9561C27.8661 88.0825 27.6738 87.9808 27.6298 87.7308C27.6101 87.6035 27.6253 87.4731 27.6736 87.3537C27.722 87.2342 27.8018 87.1301 27.9045 87.0523C28.1078 86.9286 28.2919 87.0303 28.3358 87.2775Z" fill="#263238"/>
<path d="M28.8798 85.9231C28.8995 86.0505 28.8844 86.1808 28.836 86.3003C28.7876 86.4198 28.7078 86.5239 28.6051 86.6017C28.41 86.7253 28.2177 86.6237 28.1738 86.3764C28.1538 86.2491 28.1688 86.1186 28.2172 85.9991C28.2656 85.8796 28.3455 85.7755 28.4485 85.6979C28.6573 85.5715 28.8358 85.6731 28.8798 85.9231Z" fill="#263238"/>
<path d="M27.4732 86.827C27.4929 86.9544 27.4778 87.0847 27.4294 87.2042C27.381 87.3236 27.3012 87.4278 27.1985 87.5056C27.0034 87.6292 26.8111 87.5275 26.7672 87.2803C26.7472 87.1529 26.7622 87.0225 26.8106 86.903C26.859 86.7834 26.9389 86.6793 27.0419 86.6017C27.2369 86.4754 27.4293 86.577 27.4732 86.827Z" fill="#263238"/>
<path d="M28.0309 85.4808C28.0503 85.6082 28.035 85.7384 27.9867 85.8578C27.9383 85.9772 27.8587 86.0814 27.7562 86.1594C27.5611 86.283 27.3688 86.1814 27.3249 85.9314C27.3052 85.804 27.3203 85.6737 27.3687 85.5542C27.417 85.4348 27.4968 85.3306 27.5996 85.2528C27.7946 85.1292 27.9869 85.2308 28.0309 85.4808Z" fill="#263238"/>
<path d="M28.3496 87.2885C28.3693 87.4159 28.3541 87.5462 28.3058 87.6657C28.2574 87.7851 28.1776 87.8893 28.0749 87.9671C27.8798 88.0907 27.6875 87.9891 27.6435 87.7418C27.6236 87.6144 27.6386 87.484 27.6869 87.3645C27.7353 87.245 27.8153 87.1409 27.9183 87.0633C28.1078 86.9369 28.3056 87.0385 28.3496 87.2885Z" fill="#263238"/>
<path d="M28.8935 85.9314C28.9135 86.0588 28.8985 86.1892 28.8501 86.3087C28.8018 86.4282 28.7218 86.5324 28.6188 86.61C28.4265 86.7363 28.2315 86.6347 28.1875 86.3847C28.1681 86.2573 28.1834 86.1271 28.2317 86.0077C28.2801 85.8883 28.3597 85.7841 28.4622 85.7061C28.6573 85.5797 28.8496 85.6814 28.8935 85.9314Z" fill="#263238"/>
<path d="M27.4869 86.8352C27.5069 86.9626 27.4919 87.093 27.4436 87.2126C27.3952 87.3321 27.3152 87.4362 27.2122 87.5138C27.0199 87.6402 26.8249 87.5385 26.7809 87.2885C26.7618 87.1612 26.7772 87.0311 26.8256 86.9117C26.8739 86.7924 26.9533 86.6882 27.0556 86.61C27.2507 86.4863 27.443 86.5852 27.4869 86.8352Z" fill="#263238"/>
<path d="M33.2012 82.1786L33.4045 82.2858L32.7012 82.7391L32.4979 82.6319L33.2012 82.1786Z" fill="#263238"/>
<path d="M32.6573 83.5358L32.8606 83.6429L32.1573 84.0935L31.954 83.9863L32.6573 83.5358Z" fill="#263238"/>
<path d="M33.5639 83.1896L33.5254 82.9781L34.0666 82.6319L34.2672 82.7391L33.5639 83.1896Z" fill="#263238"/>
<path d="M31.954 83.9863L32.1573 84.0935L32.3166 84.9973L32.1133 84.8929L31.954 83.9863Z" fill="#263238"/>
<path d="M32.976 85.3435L33.1793 85.4506L33.0199 84.5468L32.8551 84.6539L32.976 85.3435Z" fill="#263238"/>
<path d="M28.0309 85.4808C28.0503 85.6082 28.035 85.7384 27.9867 85.8578C27.9383 85.9772 27.8587 86.0814 27.7562 86.1594C27.5611 86.283 27.3688 86.1814 27.3249 85.9314C27.3052 85.804 27.3203 85.6737 27.3687 85.5542C27.417 85.4348 27.4968 85.3306 27.5996 85.2528C27.7946 85.1292 27.9869 85.2308 28.0309 85.4808Z" fill="#BA68C8"/>
<path d="M28.3496 87.2885C28.3693 87.4159 28.3541 87.5462 28.3058 87.6657C28.2574 87.7851 28.1776 87.8893 28.0749 87.9671C27.8798 88.0907 27.6875 87.9891 27.6435 87.7418C27.6236 87.6144 27.6386 87.484 27.6869 87.3645C27.7353 87.245 27.8153 87.1409 27.9183 87.0633C28.1078 86.9369 28.3056 87.0385 28.3496 87.2885Z" fill="#BA68C8"/>
<path d="M28.8935 85.9314C28.9135 86.0588 28.8985 86.1892 28.8501 86.3087C28.8018 86.4282 28.7218 86.5324 28.6188 86.61C28.4265 86.7363 28.2315 86.6347 28.1875 86.3847C28.1681 86.2573 28.1834 86.1271 28.2317 86.0077C28.2801 85.8883 28.3597 85.7841 28.4622 85.7061C28.6573 85.5797 28.8496 85.6814 28.8935 85.9314Z" fill="#BA68C8"/>
<path d="M27.4869 86.8352C27.5069 86.9626 27.4919 87.093 27.4436 87.2126C27.3952 87.3321 27.3152 87.4362 27.2122 87.5138C27.0199 87.6402 26.8249 87.5385 26.7809 87.2885C26.7618 87.1612 26.7772 87.0311 26.8256 86.9117C26.8739 86.7924 26.9533 86.6882 27.0556 86.61C27.2507 86.4863 27.443 86.5852 27.4869 86.8352Z" fill="#BA68C8"/>
<path d="M34.7891 8.70611L31.8359 10.4094C31.8522 10.28 31.8605 10.1497 31.8606 10.0193V9.1649C31.8606 7.64292 30.7919 7.02479 29.476 7.79127C28.907 8.13981 28.4213 8.60866 28.0529 9.1649C27.8359 7.24182 26.3359 6.53853 24.5117 7.59072C22.5391 8.73083 20.9402 11.5001 20.9402 13.7748V15.055C20.9277 15.566 21.031 16.0732 21.2424 16.5385L18.7891 17.9534C18.4039 18.205 18.0832 18.5437 17.8532 18.9422C17.6231 19.3408 17.4901 19.7879 17.465 20.2473C17.465 21.0907 18.0584 21.4341 18.7891 21.0111L34.7891 11.7748C35.1744 11.5232 35.4951 11.1844 35.7251 10.7859C35.9552 10.3874 36.0881 9.9403 36.1133 9.48083C36.1133 8.62644 35.5254 8.28303 34.7891 8.70611Z" fill="#F0F0F0"/>
<path d="M96.149 85.4698L95.5996 85.1594L95.9897 84.9836C95.9897 84.9836 96.2946 85.066 96.3029 85.0797C96.3004 85.1507 96.293 85.2213 96.2809 85.2913L96.149 85.4698Z" fill="#E0E0E0"/>
<path d="M96.149 85.4698L95.5996 85.1594L95.9897 84.9836C95.9897 84.9836 96.2946 85.066 96.3029 85.0797C96.3004 85.1507 96.293 85.2213 96.2809 85.2913L96.149 85.4698Z" fill="#BA68C8"/>
<path opacity="0.1" d="M96.149 85.4698L95.5996 85.1594L95.9897 84.9836C95.9897 84.9836 96.2946 85.066 96.3029 85.0797C96.3004 85.1507 96.293 85.2213 96.2809 85.2913L96.149 85.4698Z" fill="white"/>
<path d="M75.704 95.7693C75.9475 95.8927 76.2167 95.9569 76.4897 95.9569C76.7627 95.9569 77.0319 95.8927 77.2754 95.7693L94.8963 85.6045L68.5227 70.3737L67.9073 70.0193L50.2864 80.1841C49.8551 80.4341 49.8551 80.8435 50.2864 81.0907L75.704 95.7693Z" fill="#BA68C8"/>
<path opacity="0.8" d="M75.704 95.7693C75.9475 95.8927 76.2167 95.9569 76.4897 95.9569C76.7627 95.9569 77.0319 95.8927 77.2754 95.7693L94.8963 85.6045L68.5227 70.3737L67.9073 70.0193L50.2864 80.1841C49.8551 80.4341 49.8551 80.8435 50.2864 81.0907L75.704 95.7693Z" fill="white"/>
<path d="M82.3221 76.5495L88.4677 80.0852L92.4457 77.7885L97.0639 80.4644V83.7913C97.0639 84.1951 96.6106 84.7693 96.4457 84.6759C96.1409 84.7496 95.8444 84.8545 95.5611 84.9891C95.099 85.2518 94.6701 85.5691 94.2837 85.9341L80.1628 77.783L82.3221 76.5495Z" fill="#E0E0E0"/>
<path d="M82.3221 76.5495L88.4677 80.0852L92.4457 77.7885L97.0639 80.4644V83.7913C97.0639 84.1951 96.6106 84.7693 96.4457 84.6759C96.1409 84.7496 95.8444 84.8545 95.5611 84.9891C95.099 85.2518 94.6701 85.5691 94.2837 85.9341L80.1628 77.783L82.3221 76.5495Z" fill="#BA68C8"/>
<path opacity="0.1" d="M82.3221 76.5495L88.4677 80.0852L92.4457 77.7885L97.0639 80.4644V83.7913C97.0639 84.1951 96.6106 84.7693 96.4457 84.6759C96.1409 84.7496 95.8444 84.8545 95.5611 84.9891C95.099 85.2518 94.6701 85.5691 94.2837 85.9341L80.1628 77.783L82.3221 76.5495Z" fill="white"/>
<path d="M77.2837 95.7665L78.3468 95.1512L94.3001 85.9424C94.3121 85.7341 94.3879 85.5346 94.5172 85.3709C94.7056 85.1206 94.943 84.9112 95.215 84.7556C95.4425 84.6162 95.7013 84.536 95.9677 84.522C96.146 84.5196 96.32 84.5766 96.4622 84.6841C96.6699 84.2764 96.771 83.8228 96.7562 83.3654H97.3606C97.3606 84.1896 97.0859 85.0358 96.7479 85.2281L96.443 85.4067C96.2699 85.5056 96.1325 85.5111 96.1325 85.4067V85.2446C96.1325 85.0632 95.8578 85.0715 95.5172 85.2693C95.1765 85.4671 94.9045 85.7693 94.9045 85.9506V86.1154C94.9045 86.2088 94.6683 86.4176 94.3826 86.5825L78.954 95.4918L77.2837 96.4534C77.0419 96.5784 76.7729 96.6417 76.5007 96.6374V95.9396C76.7723 95.9507 77.0421 95.8911 77.2837 95.7665V95.7665Z" fill="#BA68C8"/>
<path opacity="0.6" d="M77.2837 95.7665L78.3468 95.1512L94.3001 85.9424C94.3121 85.7341 94.3879 85.5346 94.5172 85.3709C94.7056 85.1206 94.943 84.9112 95.215 84.7556C95.4425 84.6162 95.7013 84.536 95.9677 84.522C96.146 84.5196 96.32 84.5766 96.4622 84.6841C96.6699 84.2764 96.771 83.8228 96.7562 83.3654H97.3606C97.3606 84.1896 97.0859 85.0358 96.7479 85.2281L96.443 85.4067C96.2699 85.5056 96.1325 85.5111 96.1325 85.4067V85.2446C96.1325 85.0632 95.8578 85.0715 95.5172 85.2693C95.1765 85.4671 94.9045 85.7693 94.9045 85.9506V86.1154C94.9045 86.2088 94.6683 86.4176 94.3826 86.5825L78.954 95.4918L77.2837 96.4534C77.0419 96.5784 76.7729 96.6417 76.5007 96.6374V95.9396C76.7723 95.9507 77.0421 95.8911 77.2837 95.7665V95.7665Z" fill="white"/>
<path d="M49.9567 80.6237V81.3352C49.9658 81.4302 49.9994 81.5212 50.0544 81.5993C50.1093 81.6773 50.1836 81.7397 50.2699 81.7803V81.7803L74.0254 95.4946L75.693 96.4561C75.9348 96.5812 76.2038 96.6444 76.476 96.6402V95.9424C76.202 95.9489 75.9311 95.8835 75.6902 95.7528L74.6298 95.1402L50.2699 81.0715C50.1832 81.0307 50.1086 80.9678 50.0537 80.8893C49.9988 80.8107 49.9653 80.7192 49.9567 80.6237Z" fill="#BA68C8"/>
<path opacity="0.1" d="M49.9567 80.6237V81.3352C49.9658 81.4302 49.9994 81.5212 50.0544 81.5993C50.1093 81.6773 50.1836 81.7397 50.2699 81.7803V81.7803L74.0254 95.4946L75.693 96.4561C75.9348 96.5812 76.2038 96.6444 76.476 96.6402V95.9424C76.202 95.9489 75.9311 95.8835 75.6902 95.7528L74.6298 95.1402L50.2699 81.0715C50.1832 81.0307 50.1086 80.9678 50.0537 80.8893C49.9988 80.8107 49.9653 80.7192 49.9567 80.6237Z" fill="white"/>
<path d="M76.4897 91.2528V95.3297C76.6715 95.3352 76.8516 95.2926 77.0117 95.2061L78.9348 94.0907L93.6573 85.5907V81.338L76.4897 91.2528Z" fill="white"/>
<path d="M50.7232 76.8847V80.0193C50.7329 80.2008 50.7852 80.3775 50.8758 80.535C50.9665 80.6925 51.0931 80.8264 51.2452 80.9259L74.0474 94.0852L75.9705 95.2006C76.1307 95.2867 76.3106 95.3293 76.4924 95.3242V91.6841L50.7232 76.8847Z" fill="#F0F0F0"/>
<path d="M93.6683 85.5852C93.6829 85.3766 93.7605 85.1774 93.8908 85.0138C94.08 84.7649 94.3173 84.5566 94.5886 84.4012C94.8144 84.2598 95.0726 84.1785 95.3386 84.1649C95.5176 84.1635 95.6921 84.2204 95.8359 84.327V80.0825L93.6738 81.3325L93.6683 85.5852Z" fill="#455A64"/>
<path d="M94.5337 84.4369C94.2833 84.5848 94.0648 84.7809 93.8908 85.0138C93.7605 85.1774 93.6829 85.3766 93.6683 85.5852V81.5303H94.5309L94.5337 84.4369Z" fill="#F5F5F5"/>
<path d="M68.5172 65.3847L94.8908 80.6154V80.9698C94.8908 81.1649 95.1655 81.2446 95.5034 81.0413C95.8413 80.838 96.1188 80.6017 96.1188 80.2638L96.1518 79.9286L69.2754 64.4121L69.1683 64.349C69.1402 64.3986 69.1242 64.4541 69.1216 64.5111V64.6759C69.1271 64.8792 68.8551 65.1951 68.5172 65.3847Z" fill="#BA68C8"/>
<path opacity="0.6" d="M68.5172 65.3847L94.8908 80.6154V80.9698C94.8908 81.1649 95.1655 81.2446 95.5034 81.0413C95.8413 80.838 96.1188 80.6017 96.1188 80.2638L96.1518 79.9286L69.2754 64.4121L69.1683 64.349C69.1402 64.3986 69.1242 64.4541 69.1216 64.5111V64.6759C69.1271 64.8792 68.8551 65.1951 68.5172 65.3847Z" fill="white"/>
<path d="M77.2836 90.7995L94.5144 80.849C94.7315 80.7363 94.932 80.6429 95.0172 80.6869L94.9045 80.6237L68.5309 65.3929L68.2232 65.2144C68.085 65.175 67.9399 65.1657 67.7978 65.187C67.6556 65.2083 67.5197 65.2598 67.399 65.338L50.3029 75.2116C49.8716 75.4616 49.8716 75.8682 50.3029 76.1182L75.726 90.7995C75.9677 90.9206 76.2344 90.9837 76.5048 90.9837C76.7752 90.9837 77.0419 90.9206 77.2836 90.7995V90.7995Z" fill="#BA68C8"/>
<path opacity="0.8" d="M77.2836 90.7995L94.5144 80.849C94.7315 80.7363 94.932 80.6429 95.0172 80.6869L94.9045 80.6237L68.5309 65.3929L68.2232 65.2144C68.085 65.175 67.9399 65.1657 67.7978 65.187C67.6556 65.2083 67.5197 65.2598 67.399 65.338L50.3029 75.2116C49.8716 75.4616 49.8716 75.8682 50.3029 76.1182L75.726 90.7995C75.9677 90.9206 76.2344 90.9837 76.5048 90.9837C76.7752 90.9837 77.0419 90.9206 77.2836 90.7995V90.7995Z" fill="white"/>
<path d="M69.1738 64.3572L69.2809 64.4204L96.1573 79.9451C96.1709 79.9165 96.1906 79.8912 96.215 79.8709L96.3056 79.8187L96.5007 79.7089L96.7397 79.5687C96.7861 79.5379 96.8415 79.5238 96.897 79.5288C96.9524 79.5338 97.0045 79.5576 97.0446 79.5962C97.056 79.6038 97.0662 79.6131 97.0749 79.6237C97.1073 79.6567 97.1341 79.6948 97.1545 79.7363C97.1838 79.7839 97.2077 79.8346 97.226 79.8874C97.247 79.944 97.2644 80.0018 97.2782 80.0605C97.2946 80.1292 97.3056 80.1951 97.3194 80.2666C97.3268 80.3074 97.3314 80.3487 97.3331 80.3902C97.3331 80.4231 97.3331 80.4534 97.3331 80.4918C97.3331 80.5303 97.3331 80.6457 97.3331 80.7253V79.9698C97.3047 79.7216 97.2189 79.4834 97.0825 79.2741C96.9462 79.0648 96.763 78.8901 96.5474 78.7638L71.1216 64.0825C70.9121 63.9588 70.6769 63.8853 70.4343 63.8677C70.1917 63.8501 69.9484 63.8888 69.7232 63.9808L69.4018 64.1677L69.2644 64.2446C69.2247 64.2733 69.1934 64.3122 69.1738 64.3572Z" fill="#BA68C8"/>
<path opacity="0.8" d="M69.1738 64.3572L69.2809 64.4204L96.1573 79.9451C96.1709 79.9165 96.1906 79.8912 96.215 79.8709L96.3056 79.8187L96.5007 79.7089L96.7397 79.5687C96.7861 79.5379 96.8415 79.5238 96.897 79.5288C96.9524 79.5338 97.0045 79.5576 97.0446 79.5962C97.056 79.6038 97.0662 79.6131 97.0749 79.6237C97.1073 79.6567 97.1341 79.6948 97.1545 79.7363C97.1838 79.7839 97.2077 79.8346 97.226 79.8874C97.247 79.944 97.2644 80.0018 97.2782 80.0605C97.2946 80.1292 97.3056 80.1951 97.3194 80.2666C97.3268 80.3074 97.3314 80.3487 97.3331 80.3902C97.3331 80.4231 97.3331 80.4534 97.3331 80.4918C97.3331 80.5303 97.3331 80.6457 97.3331 80.7253V79.9698C97.3047 79.7216 97.2189 79.4834 97.0825 79.2741C96.9462 79.0648 96.763 78.8901 96.5474 78.7638L71.1216 64.0825C70.9121 63.9588 70.6769 63.8853 70.4343 63.8677C70.1917 63.8501 69.9484 63.8888 69.7232 63.9808L69.4018 64.1677L69.2644 64.2446C69.2247 64.2733 69.1934 64.3122 69.1738 64.3572Z" fill="white"/>
<path d="M77.2837 90.8023L78.3496 90.1841L90.6051 83.1127L94.5172 80.8545C94.7919 80.6896 95.0227 80.6319 95.0364 80.7171V80.8929C95.0364 81.0907 95.3111 81.0907 95.649 80.8929C95.7743 80.8385 95.8841 80.7537 95.9685 80.6463C96.0529 80.5389 96.1093 80.4121 96.1325 80.2775V80.0852C96.1285 80.0423 96.1346 79.9991 96.1504 79.959C96.1661 79.9189 96.1911 79.8831 96.2232 79.8545L96.3139 79.8023L96.5089 79.6924L96.7479 79.5523C96.7943 79.5214 96.8498 79.5074 96.9052 79.5124C96.9607 79.5173 97.0128 79.5411 97.0529 79.5797C97.0643 79.5873 97.0745 79.5966 97.0831 79.6072C97.1035 79.6286 97.1211 79.6527 97.1353 79.6786C97.1469 79.6906 97.1562 79.7045 97.1628 79.7198C97.192 79.7675 97.2159 79.8181 97.2342 79.8709C97.2552 79.9275 97.2727 79.9853 97.2864 80.044C97.3029 80.1127 97.3139 80.1786 97.3276 80.2501C97.335 80.2909 97.3396 80.3322 97.3413 80.3737C97.3413 80.4067 97.3413 80.4369 97.3413 80.4753C97.3413 80.5138 97.3413 80.6292 97.3413 80.7089V83.3572H96.7369V80.7089C96.7369 80.6457 96.7369 80.5825 96.7369 80.522L96.7205 80.3709C96.7218 80.3665 96.7218 80.3617 96.7205 80.3572C96.6655 80.838 96.2067 81.2665 95.8084 81.4918C95.5872 81.6314 95.3334 81.7109 95.0721 81.7226C94.8706 81.7252 94.6751 81.6538 94.5227 81.522L94.4677 81.5523L94.3633 81.6154L78.9348 90.5248L77.2837 91.4973C77.0458 91.619 76.7816 91.6804 76.5144 91.6759V90.9781C76.7814 90.9837 77.0456 90.9233 77.2837 90.8023V90.8023Z" fill="#BA68C8"/>
<path opacity="0.6" d="M77.2837 90.8023L78.3496 90.1841L90.6051 83.1127L94.5172 80.8545C94.7919 80.6896 95.0227 80.6319 95.0364 80.7171V80.8929C95.0364 81.0907 95.3111 81.0907 95.649 80.8929C95.7743 80.8385 95.8841 80.7537 95.9685 80.6463C96.0529 80.5389 96.1093 80.4121 96.1325 80.2775V80.0852C96.1285 80.0423 96.1346 79.9991 96.1504 79.959C96.1661 79.9189 96.1911 79.8831 96.2232 79.8545L96.3139 79.8023L96.5089 79.6924L96.7479 79.5523C96.7943 79.5214 96.8498 79.5074 96.9052 79.5124C96.9607 79.5173 97.0128 79.5411 97.0529 79.5797C97.0643 79.5873 97.0745 79.5966 97.0831 79.6072C97.1035 79.6286 97.1211 79.6527 97.1353 79.6786C97.1469 79.6906 97.1562 79.7045 97.1628 79.7198C97.192 79.7675 97.2159 79.8181 97.2342 79.8709C97.2552 79.9275 97.2727 79.9853 97.2864 80.044C97.3029 80.1127 97.3139 80.1786 97.3276 80.2501C97.335 80.2909 97.3396 80.3322 97.3413 80.3737C97.3413 80.4067 97.3413 80.4369 97.3413 80.4753C97.3413 80.5138 97.3413 80.6292 97.3413 80.7089V83.3572H96.7369V80.7089C96.7369 80.6457 96.7369 80.5825 96.7369 80.522L96.7205 80.3709C96.7218 80.3665 96.7218 80.3617 96.7205 80.3572C96.6655 80.838 96.2067 81.2665 95.8084 81.4918C95.5872 81.6314 95.3334 81.7109 95.0721 81.7226C94.8706 81.7252 94.6751 81.6538 94.5227 81.522L94.4677 81.5523L94.3633 81.6154L78.9348 90.5248L77.2837 91.4973C77.0458 91.619 76.7816 91.6804 76.5144 91.6759V90.9781C76.7814 90.9837 77.0456 90.9233 77.2837 90.8023V90.8023Z" fill="white"/>
<path d="M49.9567 75.6567V76.3737C49.9653 76.4692 49.9988 76.5607 50.0537 76.6393C50.1086 76.7178 50.1832 76.7807 50.2699 76.8215V76.8215L74.0254 90.5358L75.693 91.5001C75.9348 91.6251 76.2038 91.6884 76.476 91.6841V90.9863C76.2024 90.9923 75.9319 90.928 75.6902 90.7995L74.6298 90.1869L50.2699 76.1182C50.1813 76.0762 50.1055 76.0113 50.0504 75.9301C49.9953 75.849 49.963 75.7545 49.9567 75.6567Z" fill="#BA68C8"/>
<path opacity="0.1" d="M49.9567 75.6567V76.3737C49.9653 76.4692 49.9988 76.5607 50.0537 76.6393C50.1086 76.7178 50.1832 76.7807 50.2699 76.8215V76.8215L74.0254 90.5358L75.693 91.5001C75.9348 91.6251 76.2038 91.6884 76.476 91.6841V90.9863C76.2024 90.9923 75.9319 90.928 75.6902 90.7995L74.6298 90.1869L50.2699 76.1182C50.1813 76.0762 50.1055 76.0113 50.0504 75.9301C49.9953 75.849 49.963 75.7545 49.9567 75.6567Z" fill="white"/>
<path d="M67.3771 65.338C67.4977 65.2598 67.6336 65.2083 67.7758 65.187C67.9179 65.1657 68.063 65.175 68.2012 65.2144L68.5089 65.3929C68.8468 65.1951 69.1188 64.8792 69.1188 64.6841V64.5193C69.1214 64.4624 69.1374 64.4068 69.1655 64.3572C69.1871 64.3126 69.2203 64.2746 69.2617 64.2473L69.399 64.1704L69.7205 63.9836C69.9456 63.8915 70.189 63.8528 70.4316 63.8705C70.6741 63.8881 70.9094 63.9616 71.1188 64.0852L96.5446 78.7666L96.5721 78.783L78.6298 89.1429C78.4677 89.2257 78.2884 89.2688 78.1065 89.2688C77.9245 89.2688 77.7452 89.2257 77.5831 89.1429L51.9924 74.2226L67.3771 65.338Z" fill="#263238"/>
<path d="M80.0666 87.6374L79.388 87.2473C79.5707 87.1838 79.7668 87.1696 79.9567 87.2061C80.138 87.2995 80.0666 87.6374 80.0666 87.6374Z" fill="#BA68C8"/>
<path opacity="0.7" d="M80.0666 87.6374L79.388 87.2473C79.5707 87.1838 79.7668 87.1696 79.9567 87.2061C80.138 87.2995 80.0666 87.6374 80.0666 87.6374Z" fill="black"/>
<path d="M80.5336 87.2171C80.4565 87.1334 80.3628 87.0667 80.2585 87.021C80.1543 86.9754 80.0417 86.9518 79.9279 86.9518C79.8141 86.9518 79.7015 86.9754 79.5972 87.021C79.493 87.0667 79.3993 87.1334 79.3221 87.2171C78.66 87.8243 78.6271 88.4259 78.3523 88.4177C78.0776 88.4094 78.0776 83.5688 78.0776 83.5688L80.6902 85.9891L80.5336 87.2171Z" fill="#BA68C8"/>
<path opacity="0.7" d="M80.5336 87.2171C80.4565 87.1334 80.3628 87.0667 80.2585 87.021C80.1543 86.9754 80.0417 86.9518 79.9279 86.9518C79.8141 86.9518 79.7015 86.9754 79.5972 87.021C79.493 87.0667 79.3993 87.1334 79.3221 87.2171C78.66 87.8243 78.6271 88.4259 78.3523 88.4177C78.0776 88.4094 78.0776 83.5688 78.0776 83.5688L80.6902 85.9891L80.5336 87.2171Z" fill="black"/>
<path d="M53.2205 69.621L53.1765 69.5962L53.5941 69.3545L71.5831 58.9698L97.7946 75.9314C98.226 76.1814 98.3029 76.544 97.965 76.7363L97.3523 77.0907L80.5392 86.8133L80.4183 86.7253L53.2205 69.621Z" fill="#BA68C8"/>
<path opacity="0.5" d="M53.2205 69.621L53.1765 69.5962L53.5941 69.3545L71.5831 58.9698L97.7946 75.9314C98.226 76.1814 98.3029 76.544 97.965 76.7363L97.3523 77.0907L80.5392 86.8133L80.4183 86.7253L53.2205 69.621Z" fill="black"/>
<path d="M78.2946 81.2775L79.5968 81.0028V86.2226C78.8111 86.5578 78.3111 86.8709 78.2232 87.5275L78.2946 81.2775Z" fill="#455A64"/>
<path d="M80.171 86.2913L96.8276 76.6759C96.9802 76.5767 97.1073 76.4429 97.1985 76.2854C97.2897 76.1279 97.3424 75.951 97.3523 75.7693V70.6292L80.5336 80.4231C80.5336 80.4231 80.3331 81.1512 79.7369 81.3792C79.1408 81.6072 79.5968 81.8407 79.5968 81.8407V86.2363C80.1106 86.1621 80.171 86.2913 80.171 86.2913Z" fill="#F0F0F0"/>
<path d="M78.6353 81.099C78.8084 81.0001 78.9457 80.9946 78.9457 81.099V81.2611C78.9457 81.4424 79.2205 81.4341 79.5611 81.2363C79.9018 81.0385 80.1765 80.7363 80.1765 80.555V80.3902C80.1765 80.2968 80.41 80.088 80.6957 79.9232L53.5968 64.3957L53.1765 64.6374C53.1183 64.6993 53.0816 64.7783 53.0721 64.8627V65.0275C53.0721 65.2089 52.7974 65.5138 52.4595 65.7089C52.1216 65.9039 51.8441 65.9149 51.8441 65.7336V65.5688C51.8441 65.4754 51.7067 65.4836 51.5364 65.5825L78.6353 81.099Z" fill="#BA68C8"/>
<path opacity="0.6" d="M78.6353 81.099C78.8084 81.0001 78.9457 80.9946 78.9457 81.099V81.2611C78.9457 81.4424 79.2205 81.4341 79.5611 81.2363C79.9018 81.0385 80.1765 80.7363 80.1765 80.555V80.3902C80.1765 80.2968 80.41 80.088 80.6957 79.9232L53.5968 64.3957L53.1765 64.6374C53.1183 64.6993 53.0816 64.7783 53.0721 64.8627V65.0275C53.0721 65.2089 52.7974 65.5138 52.4595 65.7089C52.1216 65.9039 51.8441 65.9149 51.8441 65.7336V65.5688C51.8441 65.4754 51.7067 65.4836 51.5364 65.5825L78.6353 81.099Z" fill="black"/>
<path d="M53.2205 64.6512L53.1765 64.6264L53.5941 64.3847L71.5831 54.0001L97.7946 69.1374C98.226 69.3874 98.3029 69.7473 97.965 69.9424L97.3523 70.294L80.5337 80.4231L53.2205 64.6512Z" fill="#BA68C8"/>
<path opacity="0.5" d="M53.2205 64.6512L53.1765 64.6264L53.5941 64.3847L71.5831 54.0001L97.7946 69.1374C98.226 69.3874 98.3029 69.7473 97.965 69.9424L97.3523 70.294L80.5337 80.4231L53.2205 64.6512Z" fill="black"/>
<path d="M51.8386 65.4012L78.932 81.044L77.9842 81.7858L50.9924 66.2034C51.0583 66.003 51.1839 65.8275 51.3523 65.7006L51.8386 65.4012Z" fill="#BA68C8"/>
<path opacity="0.5" d="M51.8386 65.4012L78.932 81.044L77.9842 81.7858L50.9924 66.2034C51.0583 66.003 51.1839 65.8275 51.3523 65.7006L51.8386 65.4012Z" fill="black"/>
<path d="M51.0831 73.1951C51.0664 73.1848 51.0508 73.1728 51.0364 73.1594C51.024 73.1533 51.0135 73.1437 51.0062 73.1319C50.984 73.1103 50.9654 73.0853 50.9512 73.0578C50.9391 73.0473 50.9297 73.0342 50.9238 73.0193C50.8944 72.9722 50.8713 72.9213 50.8551 72.8682C50.8323 72.8111 50.8139 72.7523 50.8001 72.6924C50.7837 72.6264 50.7727 72.5605 50.7617 72.4891C50.7522 72.4485 50.7466 72.4071 50.7452 72.3655V72.2638C50.7452 72.1896 50.7452 72.11 50.7452 72.0303V67.555C50.7403 67.0851 50.8261 66.6187 50.9979 66.1814L77.9897 81.7638L78.1023 88.7748L51.1133 73.1869L51.0831 73.1951Z" fill="#BA68C8"/>
<path opacity="0.7" d="M51.0831 73.1951C51.0664 73.1848 51.0508 73.1728 51.0364 73.1594C51.024 73.1533 51.0135 73.1437 51.0062 73.1319C50.984 73.1103 50.9654 73.0853 50.9512 73.0578C50.9391 73.0473 50.9297 73.0342 50.9238 73.0193C50.8944 72.9722 50.8713 72.9213 50.8551 72.8682C50.8323 72.8111 50.8139 72.7523 50.8001 72.6924C50.7837 72.6264 50.7727 72.5605 50.7617 72.4891C50.7522 72.4485 50.7466 72.4071 50.7452 72.3655V72.2638C50.7452 72.1896 50.7452 72.11 50.7452 72.0303V67.555C50.7403 67.0851 50.8261 66.6187 50.9979 66.1814L77.9897 81.7638L78.1023 88.7748L51.1133 73.1869L51.0831 73.1951Z" fill="black"/>
<path opacity="0.79" d="M77.9705 81.7748C77.9705 81.7748 56.7122 71.827 54.7782 70.9149C53.5007 70.3133 52.8743 71.577 53.1765 72.8847C53.4512 74.0275 54.5694 75.2061 54.5694 75.2061L51.0941 73.1979C51.0774 73.1875 51.0617 73.1756 51.0474 73.1622C51.0349 73.156 51.0245 73.1465 51.0172 73.1347C50.995 73.1131 50.9764 73.088 50.9622 73.0605C50.9501 73.0501 50.9407 73.0369 50.9347 73.022C50.9053 72.9749 50.8822 72.9241 50.8661 72.8709C50.8432 72.8138 50.8249 72.7551 50.8111 72.6951C50.7946 72.6292 50.7837 72.5632 50.7727 72.4918C50.7631 72.4512 50.7576 72.4098 50.7562 72.3682V72.2665C50.7562 72.1924 50.7562 72.1127 50.7562 72.033V67.555C50.7512 67.0851 50.8371 66.6187 51.0089 66.1814L77.9705 81.7748Z" fill="#263238"/>
<path d="M77.7205 83.1402H78.3249C78.3107 82.6832 78.4108 82.23 78.6161 81.8215C78.7598 81.9281 78.9344 81.985 79.1133 81.9836C79.3794 81.97 79.6375 81.8887 79.8633 81.7473C80.1352 81.5927 80.3727 81.3843 80.5611 81.1347C80.5755 81.1175 80.5884 81.0991 80.5996 81.0797C80.7063 80.9277 80.7682 80.7487 80.7782 80.5632L96.7315 71.3545L97.2809 71.0385L97.9732 70.6402C98.0335 70.6127 98.085 70.5692 98.1223 70.5145C98.1596 70.4598 98.1812 70.3959 98.1847 70.3297V69.6237C98.1818 69.691 98.1605 69.7563 98.1232 69.8124C98.086 69.8685 98.0341 69.9135 97.9732 69.9424V69.9424L96.1408 70.9973L80.715 79.9067C80.4265 80.0715 80.193 80.2803 80.193 80.3737V80.5385C80.1758 80.643 80.1258 80.7392 80.0501 80.8133C79.9177 80.9725 79.7577 81.1065 79.5776 81.2089C79.2369 81.4067 78.9622 81.4149 78.9622 81.2336V81.0715C78.9622 80.9753 78.8276 80.9836 78.6545 81.0715L78.3496 81.2501C77.9952 81.4698 77.7205 82.3078 77.7205 83.1402Z" fill="#BA68C8"/>
<path d="M78.3249 83.1402V87.6155C78.3249 87.6787 78.3249 87.7418 78.3249 87.8023L78.3386 87.9534C78.3373 87.9579 78.3373 87.9626 78.3386 87.9671C78.3935 87.4863 78.8523 87.0578 79.2507 86.8325C79.4727 86.6926 79.7275 86.613 79.9897 86.6017C80.1912 86.5992 80.3867 86.6705 80.5391 86.8023L80.5913 86.7721L80.6985 86.7089L96.1243 77.7995L97.0117 77.2885L97.2644 77.1402L98.0117 76.7089C98.0608 76.6781 98.1015 76.6357 98.1303 76.5853C98.1591 76.535 98.1749 76.4784 98.1765 76.4204V77.1264C98.1744 77.1811 98.1594 77.2346 98.1326 77.2823C98.1059 77.3301 98.0682 77.3708 98.0227 77.4012V77.4012C97.9347 77.4534 97.8413 77.5028 97.7479 77.5605L97.5749 77.6622L97.2782 77.8325C97.2122 77.8737 97.1518 77.9094 97.0941 77.9396C97.0364 77.9699 97.0034 77.9946 96.965 78.0138L96.7369 78.1484L84.4815 85.2199L80.5694 87.4781C80.2946 87.6429 80.0666 87.7006 80.0501 87.6155C80.0492 87.6054 80.0492 87.5953 80.0501 87.5852V87.4286C80.0501 87.2308 79.7754 87.2308 79.4375 87.4286C79.3122 87.4831 79.2024 87.5679 79.118 87.6753C79.0336 87.7827 78.9773 87.9094 78.954 88.044V88.2363C78.958 88.2792 78.9519 88.3224 78.9362 88.3625C78.9204 88.4026 78.8955 88.4384 78.8633 88.4671L78.7727 88.5193L78.5804 88.6292L78.3413 88.7693C78.295 88.8001 78.2395 88.8142 78.184 88.8092C78.1286 88.8042 78.0765 88.7804 78.0364 88.7418C78.0239 88.7357 78.0135 88.7262 78.0062 88.7144C77.9841 88.6937 77.9655 88.6696 77.9512 88.6429V88.6429C77.9405 88.6313 77.9313 88.6184 77.9238 88.6045C77.8943 88.5573 77.8713 88.5065 77.8551 88.4534C77.8319 88.3974 77.8135 88.3394 77.8001 88.2803C77.7837 88.2116 77.7727 88.1457 77.7617 88.0743C77.752 88.0337 77.7464 87.9923 77.7452 87.9506C77.7452 87.9177 77.7452 87.8874 77.7452 87.849C77.7452 87.8105 77.7452 87.6951 77.7452 87.6155V83.1402H78.3249Z" fill="#BA68C8"/>
<g opacity="0.6">
<path opacity="0.6" d="M77.7205 83.1402H78.3249C78.3107 82.6832 78.4108 82.23 78.6161 81.8215C78.7598 81.9281 78.9344 81.985 79.1133 81.9836C79.3794 81.97 79.6375 81.8887 79.8633 81.7473C80.1352 81.5927 80.3727 81.3843 80.5611 81.1347C80.5755 81.1175 80.5884 81.0991 80.5996 81.0797C80.7063 80.9277 80.7682 80.7487 80.7782 80.5632L96.7315 71.3545L97.2809 71.0385L97.9732 70.6402C98.0335 70.6127 98.085 70.5692 98.1223 70.5145C98.1596 70.4598 98.1812 70.3959 98.1847 70.3297V69.6237C98.1818 69.691 98.1605 69.7563 98.1232 69.8124C98.086 69.8685 98.0341 69.9135 97.9732 69.9424V69.9424L96.1408 70.9973L80.715 79.9067C80.4265 80.0715 80.193 80.2803 80.193 80.3737V80.5385C80.1758 80.643 80.1258 80.7392 80.0501 80.8133C79.9177 80.9725 79.7577 81.1065 79.5776 81.2089C79.2369 81.4067 78.9622 81.4149 78.9622 81.2336V81.0715C78.9622 80.9753 78.8276 80.9836 78.6545 81.0715L78.3496 81.2501C77.9952 81.4698 77.7205 82.3078 77.7205 83.1402Z" fill="black"/>
<path opacity="0.6" d="M78.3249 83.1402V87.6154C78.3249 87.6786 78.3249 87.7418 78.3249 87.8023L78.3386 87.9534C78.3373 87.9578 78.3373 87.9626 78.3386 87.9671C78.3935 87.4863 78.8523 87.0578 79.2507 86.8325C79.4727 86.6926 79.7275 86.613 79.9897 86.6017C80.1912 86.5991 80.3867 86.6705 80.5391 86.8023L80.5913 86.772L80.6985 86.7089L96.1243 77.7995L97.0117 77.2885L97.2644 77.1402L98.0117 76.7089C98.0608 76.6781 98.1015 76.6356 98.1303 76.5853C98.1591 76.535 98.1749 76.4783 98.1765 76.4204V77.1264C98.1744 77.1811 98.1594 77.2346 98.1326 77.2823C98.1059 77.3301 98.0682 77.3708 98.0227 77.4012V77.4012C97.9347 77.4534 97.8413 77.5028 97.7479 77.5605L97.5749 77.6622L97.2782 77.8325C97.2122 77.8737 97.1518 77.9094 97.0941 77.9396C97.0364 77.9698 97.0034 77.9946 96.965 78.0138L96.7369 78.1484L84.4815 85.2198L80.5694 87.4781C80.2946 87.6429 80.0666 87.7006 80.0501 87.6154C80.0492 87.6054 80.0492 87.5953 80.0501 87.5852V87.4286C80.0501 87.2308 79.7754 87.2308 79.4375 87.4286C79.3122 87.4831 79.2024 87.5678 79.118 87.6753C79.0336 87.7827 78.9773 87.9094 78.954 88.044V88.2363C78.958 88.2792 78.9519 88.3224 78.9362 88.3625C78.9204 88.4026 78.8955 88.4384 78.8633 88.4671L78.7727 88.5193L78.5804 88.6292L78.3413 88.7693C78.295 88.8001 78.2395 88.8142 78.184 88.8092C78.1286 88.8042 78.0765 88.7804 78.0364 88.7418C78.0239 88.7357 78.0135 88.7262 78.0062 88.7144C77.9841 88.6937 77.9655 88.6696 77.9512 88.6429V88.6429C77.9405 88.6313 77.9313 88.6183 77.9238 88.6045C77.8943 88.5573 77.8713 88.5065 77.8551 88.4534C77.8319 88.3973 77.8135 88.3394 77.8001 88.2803C77.7837 88.2116 77.7727 88.1457 77.7617 88.0742C77.752 88.0337 77.7464 87.9923 77.7452 87.9506C77.7452 87.9176 77.7452 87.8874 77.7452 87.849C77.7452 87.8105 77.7452 87.6951 77.7452 87.6154V83.1402H78.3249Z" fill="black"/>
</g>
<path d="M50.9787 66.1896L76.6326 81.0028L96.0227 69.8078C96.086 69.7866 96.1411 69.746 96.1801 69.6917C96.2192 69.6375 96.2402 69.5724 96.2402 69.5056C96.2402 69.4387 96.2192 69.3736 96.1801 69.3194C96.1411 69.2652 96.086 69.2246 96.0227 69.2034L70.638 54.544L53.6051 64.3847L53.1847 64.6292C53.1279 64.6905 53.0922 64.7686 53.0831 64.8517V65.0166C53.0831 65.1979 52.8084 65.5028 52.4705 65.6979C52.4533 65.7092 52.4349 65.7184 52.4155 65.7253L51.8496 65.3984L51.5749 65.5523L51.5364 65.5715L51.3386 65.6869C51.1704 65.814 51.0448 65.9894 50.9787 66.1896V66.1896Z" fill="#263238"/>
<path d="M94.5913 69.9176L93.8194 69.5056L94.5227 69.338C94.5902 69.4169 94.6328 69.5142 94.6451 69.6174C94.6573 69.7206 94.6386 69.8251 94.5913 69.9176V69.9176Z" fill="#E0E0E0"/>
<g style="mix-blend-mode:multiply" opacity="0.5">
<path d="M94.5913 69.9176L93.8194 69.5056L94.5227 69.338C94.5902 69.4169 94.6328 69.5142 94.6451 69.6174C94.6573 69.7206 94.6386 69.8251 94.5913 69.9176V69.9176Z" fill="#E0E0E0"/>
</g>
<path d="M74.1325 80.2199C74.3756 80.3432 74.6443 80.4074 74.9169 80.4074C75.1895 80.4074 75.4582 80.3432 75.7012 80.2199L93.3221 70.055L66.9485 53.3819L66.3304 53.0248L48.7122 64.6292C48.2809 64.8792 48.2809 65.2858 48.7122 65.5358L74.1325 80.2199Z" fill="#BA68C8"/>
<path d="M80.7479 59.5523L94.0611 68.5742L86.8935 63.0797L90.8716 60.783L95.4979 63.4616V68.2391C95.4979 68.6457 95.0446 69.2199 94.8798 69.1264C94.5749 69.2001 94.2785 69.3051 93.9952 69.4396C93.5331 69.7024 93.1042 70.0197 92.7177 70.3847L78.5996 60.7885L80.7479 59.5523Z" fill="#BA68C8"/>
<path opacity="0.2" d="M80.7479 59.5523L94.0611 68.5742L86.8935 63.0797L90.8716 60.783L95.4979 63.4616V68.2391C95.4979 68.6457 95.0446 69.2199 94.8798 69.1264C94.5749 69.2001 94.2785 69.3051 93.9952 69.4396C93.5331 69.7024 93.1042 70.0197 92.7177 70.3847L78.5996 60.7885L80.7479 59.5523Z" fill="black"/>
<path d="M74.9155 74.2556V79.772C75.0981 79.7761 75.2787 79.7336 75.4402 79.6484L77.3633 78.533L92.0886 70.033V64.3352L74.9155 74.2556Z" fill="white"/>
<path d="M49.149 59.8902V64.4699C49.1591 64.6513 49.2116 64.8278 49.3022 64.9852C49.3929 65.1427 49.5192 65.2767 49.671 65.3764L72.4732 78.5358L74.3963 79.6512C74.557 79.736 74.7366 79.7785 74.9183 79.7748V74.6869L49.149 59.8902Z" fill="#F0F0F0"/>
<path d="M92.0968 70.033C92.1103 69.8247 92.187 69.6253 92.3166 69.4616C92.5043 69.2113 92.7419 69.0027 93.0144 68.849C93.2412 68.7076 93.5003 68.6263 93.7672 68.6127C93.9402 68.5952 94.1142 68.6358 94.2617 68.7281V63.0852L92.0996 64.3352L92.0968 70.033Z" fill="#455A64"/>
<path d="M92.9595 68.8819C92.7103 69.0326 92.4922 69.2293 92.3166 69.4616C92.187 69.6253 92.1103 69.8246 92.0968 70.033V64.5385H92.9567L92.9595 68.8819Z" fill="#F5F5F5"/>
<path d="M66.9457 48.3957L93.3194 63.6292V63.9808C93.3194 64.1786 93.5941 64.2556 93.932 64.055C94.2699 63.8545 94.5501 63.6127 94.5501 63.2748L94.5831 62.9396L67.7067 47.4231L67.5968 47.36C67.5692 47.4106 67.5541 47.4671 67.5529 47.5248V47.6869C67.5556 47.8819 67.2837 48.1979 66.9457 48.3957Z" fill="#BA68C8"/>
<path opacity="0.2" d="M66.9457 48.3957L93.3194 63.6292V63.9808C93.3194 64.1786 93.5941 64.2556 93.932 64.055C94.2699 63.8545 94.5501 63.6127 94.5501 63.2748L94.5831 62.9396L67.7067 47.4231L67.5968 47.36C67.5692 47.4106 67.5541 47.4671 67.5529 47.5248V47.6869C67.5556 47.8819 67.2837 48.1979 66.9457 48.3957Z" fill="black"/>
<path d="M75.7012 73.8023L92.943 63.8545C93.1628 63.7391 93.3633 63.6457 93.4457 63.6896L93.3331 63.6292L66.9595 48.3957L66.649 48.2199C66.511 48.1789 66.3656 48.1687 66.2232 48.19C66.0808 48.2114 65.9448 48.2638 65.8249 48.3435L48.7122 58.2144C48.2809 58.4644 48.2809 58.8737 48.7122 59.1209L74.138 73.8023C74.3804 73.9247 74.6481 73.9885 74.9196 73.9885C75.1912 73.9885 75.4589 73.9247 75.7012 73.8023V73.8023Z" fill="#BA68C8"/>
<path d="M67.5996 47.36L67.7095 47.4231L94.5913 62.9396C94.6049 62.911 94.6246 62.8857 94.649 62.8655L94.7397 62.816L94.932 62.7034L95.171 62.5633C95.2175 62.5329 95.2729 62.5191 95.3283 62.5241C95.3836 62.5291 95.4356 62.5526 95.476 62.5907C95.4873 62.5984 95.4975 62.6076 95.5062 62.6182C95.538 62.6524 95.5656 62.6902 95.5886 62.7308C95.6169 62.7786 95.6399 62.8292 95.6573 62.8819C95.6789 62.9395 95.6972 62.9982 95.7122 63.0578C95.726 63.1237 95.7397 63.1896 95.7507 63.2611C95.759 63.3028 95.7646 63.345 95.7672 63.3874V63.4863C95.7672 63.5605 95.7672 63.6402 95.7672 63.7226V62.9671C95.7396 62.7183 95.6542 62.4794 95.5177 62.2695C95.3813 62.0596 95.1976 61.8845 94.9815 61.7583L69.5556 47.077C69.346 46.9536 69.1107 46.8805 68.8681 46.8633C68.6255 46.8461 68.3822 46.8854 68.1573 46.9781L67.8358 47.1649L67.7012 47.2446C67.6571 47.2726 67.6218 47.3126 67.5996 47.36V47.36Z" fill="#BA68C8"/>
<path d="M75.7012 80.2199L76.7644 79.6045L92.7177 70.3929C92.7317 70.1847 92.8083 69.9855 92.9375 69.8215C93.1261 69.572 93.3635 69.3636 93.6353 69.2089C93.8618 69.0696 94.1197 68.9893 94.3853 68.9754C94.5646 68.9717 94.7399 69.0288 94.8826 69.1374C95.0875 68.7279 95.1876 68.2738 95.1738 67.816H95.7782C95.7782 68.6402 95.5034 69.4863 95.1655 69.6814L94.8606 69.86C94.6875 69.9589 94.5529 69.9644 94.5529 69.86V69.6979C94.5529 69.5166 94.2782 69.5248 93.9347 69.7199C93.5913 69.9149 93.3221 70.2226 93.3221 70.4039V70.566C93.3221 70.6594 93.0886 70.8682 92.8001 71.0358L77.3716 79.9451L75.7012 80.9094C75.4594 81.0345 75.1905 81.0977 74.9183 81.0935V80.3957C75.19 80.405 75.4596 80.3444 75.7012 80.2199V80.2199Z" fill="#BA68C8"/>
<path opacity="0.4" d="M75.7012 80.2199L76.7644 79.6045L92.7177 70.3929C92.7317 70.1847 92.8083 69.9855 92.9375 69.8215C93.1261 69.572 93.3635 69.3636 93.6353 69.2089C93.8618 69.0696 94.1197 68.9893 94.3853 68.9754C94.5646 68.9717 94.7399 69.0288 94.8826 69.1374C95.0875 68.7279 95.1876 68.2738 95.1738 67.816H95.7782C95.7782 68.6402 95.5034 69.4863 95.1655 69.6814L94.8606 69.86C94.6875 69.9589 94.5529 69.9644 94.5529 69.86V69.6979C94.5529 69.5166 94.2782 69.5248 93.9347 69.7199C93.5913 69.9149 93.3221 70.2226 93.3221 70.4039V70.566C93.3221 70.6594 93.0886 70.8682 92.8001 71.0358L77.3716 79.9451L75.7012 80.9094C75.4594 81.0345 75.1905 81.0977 74.9183 81.0935V80.3957C75.19 80.405 75.4596 80.3444 75.7012 80.2199V80.2199Z" fill="black"/>
<path d="M75.6957 73.805L76.7589 73.1896L89.0144 66.1182L92.943 63.8545C93.2177 63.6924 93.4485 63.6347 93.465 63.7199V63.8984C93.465 64.0935 93.7397 64.0935 94.0776 63.8984C94.2032 63.8437 94.3132 63.7585 94.3977 63.6506C94.4821 63.5427 94.5383 63.4154 94.5611 63.2803V63.088C94.5571 63.0451 94.5632 63.0019 94.5789 62.9618C94.5947 62.9217 94.6196 62.8859 94.6518 62.8572L94.7424 62.8078L94.9348 62.6951L95.1738 62.555C95.2203 62.5247 95.2757 62.5109 95.331 62.5159C95.3863 62.5209 95.4384 62.5443 95.4787 62.5825C95.49 62.5901 95.5002 62.5994 95.5089 62.61C95.5303 62.6323 95.5487 62.6572 95.5639 62.6841C95.5743 62.696 95.5835 62.7089 95.5913 62.7226C95.6197 62.7703 95.6427 62.821 95.66 62.8737C95.6816 62.9312 95.6999 62.9899 95.715 63.0495C95.7287 63.1155 95.7424 63.1814 95.7534 63.2528C95.7618 63.2945 95.7673 63.3367 95.7699 63.3792V63.4781C95.7699 63.5523 95.7699 63.6319 95.7699 63.7144V67.8023H95.1655V63.7363C95.1655 63.6731 95.1655 63.6072 95.1655 63.5468L95.1518 63.3957C95.0968 63.8764 94.638 64.305 94.2369 64.5303C94.0161 64.6707 93.7621 64.7503 93.5007 64.7611C93.2992 64.7636 93.1037 64.6923 92.9512 64.5605L92.899 64.5907L92.7919 64.6539L77.3633 73.5633L75.693 74.5275C75.4542 74.6496 75.1891 74.7109 74.921 74.7061V74.0083C75.1922 74.0064 75.4586 73.9365 75.6957 73.805V73.805Z" fill="#BA68C8"/>
<path opacity="0.4" d="M75.6957 73.805L76.7589 73.1896L89.0144 66.1182L92.943 63.8545C93.2177 63.6924 93.4485 63.6347 93.465 63.7199V63.8984C93.465 64.0935 93.7397 64.0935 94.0776 63.8984C94.2032 63.8437 94.3132 63.7585 94.3977 63.6506C94.4821 63.5427 94.5383 63.4154 94.5611 63.2803V63.088C94.5571 63.0451 94.5632 63.0019 94.5789 62.9618C94.5947 62.9217 94.6196 62.8859 94.6518 62.8572L94.7424 62.8078L94.9348 62.6951L95.1738 62.555C95.2203 62.5247 95.2757 62.5109 95.331 62.5159C95.3863 62.5209 95.4384 62.5443 95.4787 62.5825C95.49 62.5901 95.5002 62.5994 95.5089 62.61C95.5303 62.6323 95.5487 62.6572 95.5639 62.6841C95.5743 62.696 95.5835 62.7089 95.5913 62.7226C95.6197 62.7703 95.6427 62.821 95.66 62.8737C95.6816 62.9312 95.6999 62.9899 95.715 63.0495C95.7287 63.1155 95.7424 63.1814 95.7534 63.2528C95.7618 63.2945 95.7673 63.3367 95.7699 63.3792V63.4781C95.7699 63.5523 95.7699 63.6319 95.7699 63.7144V67.8023H95.1655V63.7363C95.1655 63.6731 95.1655 63.6072 95.1655 63.5468L95.1518 63.3957C95.0968 63.8764 94.638 64.305 94.2369 64.5303C94.0161 64.6707 93.7621 64.7503 93.5007 64.7611C93.2992 64.7636 93.1037 64.6923 92.9512 64.5605L92.899 64.5907L92.7919 64.6539L77.3633 73.5633L75.693 74.5275C75.4542 74.6496 75.1891 74.7109 74.921 74.7061V74.0083C75.1922 74.0064 75.4586 73.9365 75.6957 73.805V73.805Z" fill="black"/>
<path d="M48.3853 58.6594V59.3682C48.3936 59.4634 48.4267 59.5548 48.4811 59.6333C48.5355 59.7118 48.6095 59.7748 48.6957 59.816V59.816L72.454 73.5303L74.1216 74.4946C74.3625 74.6192 74.6305 74.6824 74.9018 74.6786V73.9808C74.6291 73.9868 74.3594 73.9225 74.1188 73.794L73.0584 73.1814L48.7122 59.1209C48.6199 59.0824 48.5403 59.0187 48.4825 58.9371C48.4247 58.8555 48.391 58.7593 48.3853 58.6594V58.6594Z" fill="#BA68C8"/>
<path opacity="0.2" d="M48.3853 58.6594V59.3682C48.3936 59.4634 48.4267 59.5548 48.4811 59.6333C48.5355 59.7118 48.6095 59.7748 48.6957 59.816V59.816L72.454 73.5303L74.1216 74.4946C74.3625 74.6192 74.6305 74.6824 74.9018 74.6786V73.9808C74.6291 73.9868 74.3594 73.9225 74.1188 73.794L73.0584 73.1814L48.7122 59.1209C48.6199 59.0824 48.5403 59.0187 48.4825 58.9371C48.4247 58.8555 48.391 58.7593 48.3853 58.6594V58.6594Z" fill="black"/>
<path d="M48.3853 65.0715V65.7803C48.3936 65.8755 48.4267 65.9668 48.4811 66.0454C48.5355 66.1239 48.6095 66.1869 48.6957 66.2281L72.465 79.9451L74.1326 80.9094C74.3735 81.034 74.6415 81.0973 74.9128 81.0935V80.3957C74.6401 80.4017 74.3704 80.3373 74.1298 80.2089L73.0694 79.5962L48.7122 65.533C48.6199 65.4945 48.5403 65.4308 48.4825 65.3492C48.4247 65.2676 48.391 65.1713 48.3853 65.0715V65.0715Z" fill="#BA68C8"/>
<path opacity="0.2" d="M48.3853 65.0715V65.7803C48.3936 65.8755 48.4267 65.9668 48.4811 66.0454C48.5355 66.1239 48.6095 66.1869 48.6957 66.2281L72.465 79.9451L74.1326 80.9094C74.3735 81.034 74.6415 81.0973 74.9128 81.0935V80.3957C74.6401 80.4017 74.3704 80.3373 74.1298 80.2089L73.0694 79.5962L48.7122 65.533C48.6199 65.4945 48.5403 65.4308 48.4825 65.3492C48.4247 65.2676 48.391 65.1713 48.3853 65.0715V65.0715Z" fill="black"/>
<path d="M59.3578 40.1457L56.8359 44.6402L60.5117 46.5962L63.1875 42.6127L59.3578 40.1457Z" fill="#FFA8A7"/>
<path d="M68.3056 30.022C66.9045 29.783 64.7837 29.7198 63.4045 32.0852C62.0254 34.4506 59.0529 40.2885 59.0529 40.2885C59.0529 40.2885 60.7891 42.5358 63.3029 42.9451L67.41 36.4286L68.3056 30.022Z" fill="#BA68C8"/>
<path d="M64.9952 85.066H61.8578V90.4369H64.9952V85.066Z" fill="#FFA8A7"/>
<path d="M55.9128 83.7583L52.7754 83.8655L52.6188 78.1814L55.7534 78.0742L55.9128 83.7583Z" fill="#FFA8A7"/>
<path d="M61.8578 88.8874V88.4396C61.5584 88.5688 60.8606 91.2308 59.6161 92.3655C58.6271 93.2693 57.2782 94.3105 56.9348 95.316C56.5776 96.3627 58.8139 96.9424 59.737 96.7775C60.8111 96.588 62.6738 95.8325 63.1408 95.1292C63.6078 94.4259 63.8276 93.3957 64.2067 92.8819C64.5858 92.3682 65.4622 91.783 65.6683 91.1979C65.7809 90.8709 65.6463 90.1567 65.4897 89.5495C65.3441 89.0001 65.1847 88.3847 64.9952 88.4369V88.7775C64.7672 89.0303 64.138 89.2803 63.4265 89.3078C62.9677 89.3297 61.8551 89.2391 61.8578 88.8874Z" fill="#263238"/>
<path d="M52.7424 82.8984C52.5804 82.8984 52.4485 83.1347 52.0886 83.522C51.5517 84.0645 50.9277 84.513 50.2424 84.849C49.0666 85.4396 46.7891 86.3435 45.7507 86.8133C45.1051 87.1045 45.1353 87.8847 45.8029 88.3297C46.4705 88.7748 48.0804 89.0935 50.0172 88.6594C51.0694 88.4231 52.443 87.4506 53.3139 87.5028C54.1847 87.555 55.8084 87.544 56.4485 87.1017C57.0886 86.6594 56.8331 85.7281 56.6518 84.9039C56.454 84.0193 56.171 82.6649 55.8771 82.7253V83.0001C55.5007 83.5715 53.5804 83.805 52.7507 83.3847L52.7424 82.8984Z" fill="#263238"/>
<path d="M77.6326 52.4039C78.3194 57.2528 77.3935 58.1731 72.7864 62.827C70.3139 65.3242 66.3166 68.9863 66.3166 68.9863C66.3166 68.9863 66.3743 70.5358 66.4045 74.0083C66.4348 77.066 65.1573 87.0166 65.1573 87.0166C65.1573 87.0166 63.0749 87.8929 61.6463 86.9836C61.6463 86.9836 61.0007 79.5797 60.6518 75.7199C60.1793 70.5001 59.932 67.8682 60.1985 66.7446C60.4348 65.7528 65.1243 59.8297 66.2067 58.1704L56.2397 63.9616C56.4329 65.429 56.5302 66.9074 56.5309 68.3874C56.421 72.5385 55.91 80.8297 55.91 80.8297C55.91 80.8297 53.6298 81.849 52.4979 80.9699C52.4979 80.9699 49.6271 62.838 49.6271 61.349C49.6271 59.088 59.4457 52.338 61.3056 50.7666C62.3661 49.8709 63.5474 48.9012 63.5474 48.9012L77.6326 52.4039Z" fill="#455A64"/>
<path d="M66.2067 58.1731C65.1583 57.3243 64.3693 56.1983 63.9293 54.9231C63.9842 55.7551 64.1026 56.5817 64.2836 57.3957C64.5584 58.4726 56.2397 63.9616 56.2397 63.9616L66.2067 58.1731Z" fill="#37474F"/>
<path d="M71.7462 21.3503C72.3074 18.9557 70.8211 16.5595 68.4265 15.9983C66.0319 15.4371 63.6358 16.9234 63.0746 19.318C62.5134 21.7126 63.9996 24.1087 66.3942 24.6699C68.7888 25.2311 71.185 23.7449 71.7462 21.3503Z" fill="#263238"/>
<path d="M76.7672 32.7199C76.7672 32.7199 77.8661 33.621 77.8661 36.4671V42.6127L77.7095 52.9479C75.5117 55.3407 65.6216 54.4341 63.1738 49.2144C63.1738 49.2144 63.193 38.305 63.193 35.86C63.193 33.4149 64.5666 30.2418 68.3029 30.022L73.1435 31.1484L76.7672 32.7199Z" fill="#263238"/>
<path d="M75.1078 23.5001C75.1078 23.5001 74.3853 26.8902 74.0968 27.4479C73.9044 27.7917 73.5864 28.0477 73.2095 28.1622L73.2589 25.7775L75.1078 23.5001Z" fill="#263238"/>
<path d="M74.2012 18.6429C74.4521 18.6147 74.706 18.6439 74.944 18.7281C75.1819 18.8123 75.3976 18.9495 75.5749 19.1292C76.1683 19.7363 75.8359 21.6374 75.0968 23.5001L73.7369 23.6567L74.2012 18.6429Z" fill="#263238"/>
<path d="M73.3413 23.6567C73.6161 23.8188 74.0034 23.2968 74.3386 22.9451C74.6738 22.5935 75.7727 22.121 76.3194 23.2666C76.8661 24.4122 75.8358 25.9946 74.9732 26.2666C73.4842 26.7336 73.2589 25.7775 73.2589 25.7775L73.1463 31.1484C71.8633 32.5825 67.476 32.2473 68.3029 31.0056V29.3572C68.3029 29.3572 66.954 29.5633 66.2974 29.4616C65.1985 29.2913 64.5117 28.4286 64.1793 27.2418C63.6463 25.338 63.443 23.8023 63.9045 20.0578C64.4018 15.9534 69.1738 15.9122 71.7507 17.533C74.3276 19.1539 73.3413 23.6567 73.3413 23.6567Z" fill="#FFA8A7"/>
<path d="M69.5474 24.5962H69.3166C68.9137 24.5962 68.5273 24.4362 68.2424 24.1513C67.9574 23.8663 67.7974 23.4799 67.7974 23.077C67.7974 22.6741 67.9574 22.2877 68.2424 22.0027C68.5273 21.7178 68.9137 21.5578 69.3166 21.5578H69.5501C69.9531 21.5578 70.3395 21.7178 70.6244 22.0027C70.9093 22.2877 71.0694 22.6741 71.0694 23.077C71.0694 23.4799 70.9093 23.8663 70.6244 24.1513C70.3395 24.4362 69.9531 24.5962 69.5501 24.5962H69.5474ZM69.3166 21.8133C68.9815 21.8133 68.66 21.9464 68.423 22.1834C68.186 22.4204 68.0529 22.7418 68.0529 23.077C68.0529 23.4122 68.186 23.7336 68.423 23.9706C68.66 24.2076 68.9815 24.3407 69.3166 24.3407H69.5501C69.8853 24.3407 70.2067 24.2076 70.4437 23.9706C70.6807 23.7336 70.8139 23.4122 70.8139 23.077C70.8139 22.7418 70.6807 22.4204 70.4437 22.1834C70.2067 21.9464 69.8853 21.8133 69.5501 21.8133H69.3166Z" fill="#263238"/>
<path d="M64.921 24.5962H64.6875C64.2846 24.5962 63.8981 24.4362 63.6132 24.1513C63.3283 23.8663 63.1683 23.4799 63.1683 23.077C63.1683 22.6741 63.3283 22.2877 63.6132 22.0027C63.8981 21.7178 64.2846 21.5578 64.6875 21.5578H64.921C65.3239 21.5578 65.7104 21.7178 65.9953 22.0027C66.2802 22.2877 66.4402 22.6741 66.4402 23.077C66.4402 23.4799 66.2802 23.8663 65.9953 24.1513C65.7104 24.4362 65.3239 24.5962 64.921 24.5962V24.5962ZM64.6875 21.8133C64.3523 21.8133 64.0309 21.9464 63.7939 22.1834C63.5569 22.4204 63.4238 22.7418 63.4238 23.077C63.4238 23.4122 63.5569 23.7336 63.7939 23.9706C64.0309 24.2076 64.3523 24.3407 64.6875 24.3407H64.921C65.2562 24.3407 65.5776 24.2076 65.8146 23.9706C66.0516 23.7336 66.1848 23.4122 66.1848 23.077C66.1848 22.7418 66.0516 22.4204 65.8146 22.1834C65.5776 21.9464 65.2562 21.8133 64.921 21.8133H64.6875Z" fill="#263238"/>
<path d="M67.8139 22.7775C67.7212 22.6516 67.6004 22.5491 67.4612 22.478C67.3219 22.407 67.168 22.3694 67.0117 22.3682C66.8815 22.3551 66.75 22.3732 66.6282 22.4209C66.5064 22.4687 66.3977 22.5448 66.3111 22.6429L66.1078 22.4891C66.219 22.3575 66.3609 22.2554 66.5209 22.1917C66.681 22.128 66.8542 22.1046 67.0254 22.1237C67.2235 22.1256 67.4183 22.1748 67.5936 22.267C67.7689 22.3592 67.9198 22.4918 68.0336 22.6539L67.8139 22.7775Z" fill="#263238"/>
<path d="M74.1573 22.7666H70.9265V23.0221H74.1573V22.7666Z" fill="#263238"/>
<path d="M73.3413 24.1155C73.4787 24.1155 73.9979 23.2528 74.3386 22.9451C74.8084 22.5166 74.2012 18.6429 74.2012 18.6429C74.2012 18.6429 74.6545 17.6786 73.7479 16.6841C73.1051 15.9753 72.0282 15.8957 70.1902 15.6072C69.226 15.4561 67.7644 15.1841 66.8001 15.0056C65.6518 14.7913 64.6985 14.566 63.888 15.2803C63.5699 15.5561 63.3449 15.9236 63.2441 16.3324C63.1433 16.7412 63.1715 17.1712 63.3249 17.5633C63.5575 18.0523 63.9713 18.4316 64.4787 18.6209C64.4787 18.6209 64.9787 19.066 66.7232 19.2775C68.4677 19.4891 71.1847 19.2391 71.5556 19.1869C72.0611 19.1182 72.1683 19.6072 72.443 20.9479C72.682 22.1155 72.888 24.1072 73.3413 24.1155Z" fill="#263238"/>
<path d="M74.1985 18.9561L75.8468 18.0688C75.794 17.958 75.7194 17.859 75.6273 17.7778C75.5353 17.6966 75.4277 17.6349 75.3112 17.5964C75.1946 17.5579 75.0715 17.5434 74.9492 17.5538C74.8269 17.5641 74.708 17.5991 74.5996 17.6567C74.3792 17.7809 74.2148 17.9848 74.1402 18.2265C74.0656 18.4682 74.0865 18.7293 74.1985 18.9561V18.9561Z" fill="#263238"/>
<path d="M68.3056 29.371C68.3056 29.371 70.7507 28.8792 71.6023 28.4259C72.1048 28.1635 72.5165 27.7556 72.7836 27.2556C72.6544 27.7537 72.4264 28.2208 72.1133 28.6292C71.4869 29.4286 68.3029 30.0166 68.3029 30.0166L68.3056 29.371Z" fill="#F28F8F"/>
<path d="M68.8935 23.0468C68.8973 23.1432 68.9294 23.2365 68.9858 23.3148C69.0422 23.3932 69.1204 23.4532 69.2107 23.4874C69.301 23.5216 69.3993 23.5285 69.4935 23.5072C69.5877 23.4859 69.6735 23.4373 69.7402 23.3675C69.807 23.2978 69.8517 23.2099 69.8689 23.1149C69.886 23.0199 69.8748 22.922 69.8367 22.8333C69.7985 22.7446 69.7351 22.6691 69.6544 22.6162C69.5736 22.5633 69.4791 22.5353 69.3825 22.5358C69.3169 22.5372 69.2521 22.5516 69.192 22.578C69.1319 22.6045 69.0776 22.6425 69.0322 22.69C68.9868 22.7374 68.9511 22.7934 68.9274 22.8546C68.9036 22.9158 68.8921 22.9811 68.8935 23.0468V23.0468Z" fill="#263238"/>
<path d="M69.6793 21.0193L70.7287 21.5962C70.7995 21.4533 70.8136 21.289 70.7682 21.1361C70.7229 20.9833 70.6214 20.8532 70.4842 20.772C70.4154 20.734 70.3397 20.7102 70.2615 20.7021C70.1834 20.694 70.1044 20.7017 70.0292 20.7248C69.9541 20.7478 69.8844 20.7858 69.8243 20.8364C69.7641 20.887 69.7148 20.9492 69.6793 21.0193V21.0193Z" fill="#263238"/>
<path d="M68.5282 26.4286L67.41 26.849C67.4341 26.924 67.4731 26.9935 67.5247 27.0531C67.5762 27.1127 67.6393 27.1613 67.7101 27.1959C67.7809 27.2306 67.858 27.2506 67.9368 27.2547C68.0155 27.2588 68.0942 27.2469 68.1683 27.2198C68.319 27.1602 68.4407 27.0444 68.5078 26.8968C68.5749 26.7493 68.5822 26.5815 68.5282 26.4286Z" fill="#F28F8F"/>
<path d="M64.399 21.4479L65.3551 20.7143C65.3106 20.6503 65.2536 20.596 65.1875 20.5546C65.1214 20.5132 65.0476 20.4856 64.9706 20.4736C64.8936 20.4615 64.8149 20.4652 64.7393 20.4844C64.6637 20.5036 64.5928 20.5379 64.5309 20.5852C64.4022 20.6845 64.3167 20.8295 64.2921 20.9901C64.2676 21.1508 64.3059 21.3147 64.399 21.4479Z" fill="#263238"/>
<path d="M64.8194 22.9067C64.8231 23.0031 64.8552 23.0963 64.9116 23.1747C64.968 23.2531 65.0462 23.3131 65.1365 23.3473C65.2268 23.3815 65.3252 23.3884 65.4193 23.367C65.5135 23.3457 65.5993 23.2972 65.666 23.2274C65.7328 23.1577 65.7775 23.0698 65.7947 22.9748C65.8118 22.8798 65.8006 22.7819 65.7625 22.6932C65.7244 22.6045 65.661 22.529 65.5802 22.4761C65.4995 22.4232 65.4049 22.3952 65.3084 22.3957C65.2427 22.3971 65.178 22.4114 65.1178 22.4379C65.0577 22.4644 65.0034 22.5024 64.958 22.5498C64.9126 22.5973 64.877 22.6532 64.8532 22.7145C64.8294 22.7757 64.8179 22.841 64.8194 22.9067V22.9067Z" fill="#263238"/>
<path d="M67.2397 22.5138L67.1848 25.4836L65.4293 25.0962L67.2397 22.5138Z" fill="#F28F8F"/>
<path d="M64.2397 47.2034V47.4781C64.2395 47.6186 64.2024 47.7565 64.132 47.878C64.0616 47.9996 63.9604 48.1004 63.8386 48.1704L56.2095 52.566C56.0879 52.6362 55.9501 52.6731 55.8098 52.6731C55.6694 52.6731 55.5316 52.6362 55.41 52.566L41.4128 44.4863C41.291 44.4163 41.1898 44.3155 41.1194 44.194C41.049 44.0724 41.0118 43.9345 41.0117 43.794V43.599L55.8084 52.1402L64.2397 47.2034Z" fill="#BA68C8"/>
<path opacity="0.6" d="M64.2397 47.2034V47.4781C64.2395 47.6186 64.2024 47.7565 64.132 47.878C64.0616 47.9996 63.9604 48.1004 63.8386 48.1704L56.2095 52.566C56.0879 52.6362 55.9501 52.6731 55.8098 52.6731C55.6694 52.6731 55.5316 52.6362 55.41 52.566L41.4128 44.4863C41.291 44.4163 41.1898 44.3155 41.1194 44.194C41.049 44.0724 41.0118 43.9345 41.0117 43.794V43.599L55.8084 52.1402L64.2397 47.2034Z" fill="black"/>
<path d="M41.0199 43.6017L49.3194 38.8105C49.392 38.7685 49.4745 38.7465 49.5584 38.7465C49.6423 38.7465 49.7247 38.7685 49.7974 38.8105L64.193 47.1237C64.2089 47.1332 64.2221 47.1467 64.2313 47.1628C64.2405 47.1789 64.2453 47.1972 64.2453 47.2157C64.2453 47.2343 64.2405 47.2525 64.2313 47.2686C64.2221 47.2848 64.2089 47.2983 64.193 47.3078L55.8166 52.1429L41.0199 43.6017Z" fill="#BA68C8"/>
<path opacity="0.5" d="M41.0199 43.6017L49.3194 38.8105C49.392 38.7685 49.4745 38.7465 49.5584 38.7465C49.6423 38.7465 49.7247 38.7685 49.7974 38.8105L64.193 47.1237C64.2089 47.1332 64.2221 47.1467 64.2313 47.1628C64.2405 47.1789 64.2453 47.1972 64.2453 47.2157C64.2453 47.2343 64.2405 47.2525 64.2313 47.2686C64.2221 47.2848 64.2089 47.2983 64.193 47.3078L55.8166 52.1429L41.0199 43.6017Z" fill="black"/>
<path d="M55.8853 51.4396L60.3606 48.8572L47.2727 41.3023L42.7727 43.8709L55.8853 51.4396Z" fill="#263238"/>
<path d="M58.0858 44.2583L58.0034 44.305L55.8084 45.5715L51.9073 43.3188L51.8276 43.272L54.1023 41.9589L58.0858 44.2583Z" fill="#263238"/>
<path d="M58.0034 44.305L55.8084 45.5715L51.9073 43.3188L54.1023 42.0523L58.0034 44.305Z" fill="#263238"/>
<path opacity="0.7" d="M55.8084 52.1429V52.6759C55.6685 52.6758 55.5311 52.6388 55.41 52.5687L41.4128 44.4891C41.291 44.4191 41.1898 44.3182 41.1194 44.1967C41.049 44.0752 41.0118 43.9372 41.0117 43.7968V43.6017L55.8084 52.1429Z" fill="black"/>
<path d="M55.5804 52.2611C55.4473 52.3141 55.3038 52.3359 55.1609 52.325C55.0181 52.314 54.8796 52.2705 54.7562 52.1979L40.8221 44.1539C40.7011 44.0845 40.5969 43.9891 40.5171 43.8746C40.4373 43.7601 40.3839 43.6294 40.3606 43.4918L38.8358 34.3929C38.8272 34.3421 38.8226 34.2907 38.8221 34.2391C38.8205 33.9863 38.9193 33.7432 39.0968 33.5633L53.5776 41.9259C53.6695 41.9764 53.749 42.0468 53.8103 42.1318C53.8716 42.2169 53.9132 42.3145 53.932 42.4177L55.5804 52.2611Z" fill="#BA68C8"/>
<path opacity="0.5" d="M55.5804 52.2611C55.4473 52.3141 55.3038 52.3359 55.1609 52.325C55.0181 52.314 54.8796 52.2705 54.7562 52.1979L40.8221 44.1539C40.7011 44.0845 40.5969 43.9891 40.5171 43.8746C40.4373 43.7601 40.3839 43.6294 40.3606 43.4918L38.8358 34.3929C38.8272 34.3421 38.8226 34.2907 38.8221 34.2391C38.8205 33.9863 38.9193 33.7432 39.0968 33.5633L53.5776 41.9259C53.6695 41.9764 53.749 42.0468 53.8103 42.1318C53.8716 42.2169 53.9132 42.3145 53.932 42.4177L55.5804 52.2611Z" fill="black"/>
<path d="M55.8084 52.1429L55.715 52.1979C55.6727 52.2223 55.6286 52.2434 55.5831 52.2611L53.9347 42.4176C53.9174 42.3157 53.8779 42.2189 53.8191 42.1339C53.7602 42.0489 53.6834 41.9779 53.5941 41.9259L39.1133 33.5633C39.1708 33.5066 39.2355 33.4576 39.3056 33.4176L53.8166 41.794C53.9059 41.8461 53.9827 41.9171 54.0416 42.002C54.1005 42.087 54.14 42.1839 54.1573 42.2858L55.8084 52.1429Z" fill="#E0E0E0"/>
<path d="M47.7342 43.8627C47.6326 43.2556 47.0034 42.4451 46.3304 42.0578C45.6573 41.6704 45.193 41.8462 45.2974 42.4561C45.4018 43.066 46.0282 43.8737 46.7012 44.2638C47.3743 44.6539 47.8386 44.4726 47.7342 43.8627Z" fill="#BA68C8"/>
<path d="M50.5886 49.7858C50.5595 49.3916 50.483 49.0023 50.3606 48.6264C50.1463 47.9534 49.5089 45.36 48.0529 44.9698C47.8797 44.9178 47.696 44.9121 47.5199 44.9534C47.1161 45.0633 46.932 45.4836 46.8523 45.86C46.7782 46.4161 46.7782 46.9796 46.8523 47.5358C46.6285 47.2798 46.3662 47.0601 46.0749 46.8847C45.8166 46.6902 45.5051 46.579 45.182 46.566C45.1371 46.5638 45.0923 46.5727 45.0515 46.5918C45.0108 46.611 44.9754 46.6399 44.9485 46.6759C44.8963 46.772 44.9485 46.8929 45.0309 46.9781C45.1765 47.1539 45.3551 47.3023 45.5007 47.4781C45.6148 47.6314 45.7203 47.791 45.8166 47.9561C46.0007 48.2528 46.2067 48.533 46.4128 48.816C46.8086 49.404 47.3053 49.9174 47.8798 50.3325C48.5406 50.7797 49.2904 51.0787 50.0776 51.2089C51.1408 51.3407 52.1738 51.3242 52.8441 51.0907L50.5886 49.7858Z" fill="#FFA8A7"/>
<path d="M76.476 32.7995C75.4952 32.294 74.0611 34.2968 74.5172 36.3902C74.9732 38.4836 77.2205 45.8435 77.2205 45.8435C77.2205 45.8435 67.0694 46.7501 66.2067 46.8572C65.6051 46.9286 64.932 46.6237 64.3743 46.4396C63.6161 46.1869 62.8496 46.0111 62.1023 45.7363C61.9723 45.6766 61.8306 45.6466 61.6875 45.6484C61.6156 45.6515 61.5468 45.6783 61.4917 45.7244C61.4366 45.7706 61.3982 45.8337 61.3826 45.9039C61.3789 45.9899 61.4009 46.075 61.4457 46.1484C61.6854 46.6373 62.0456 47.0571 62.4924 47.3682C62.7089 47.4961 62.9147 47.6413 63.1078 47.8023C63.226 47.9204 63.4869 48.2473 63.3826 48.4259L59.3496 50.7473C59.3496 50.7473 60.2782 51.555 63.6408 50.6127C64.8529 50.2956 66.0358 49.8756 67.1765 49.3572C67.1765 49.3572 79.138 49.8545 81.3001 49.2006C82.0639 48.9671 82.3386 48.4259 81.8221 45.9644C81.2314 43.1127 79.5364 37.9122 79.1518 36.5385C78.3084 33.5633 78.1078 33.6319 76.476 32.7995Z" fill="#FFA8A7"/>
<path d="M75.9705 32.3737C75.9705 32.3737 77.5913 32.8297 78.2891 33.7473C78.9869 34.6649 81.6793 43.5413 81.6793 43.5413C80.9755 44.1283 80.1525 44.5552 79.2673 44.7924C78.3821 45.0296 77.4559 45.0714 76.5529 44.9149C76.5529 44.9149 74.388 38.7748 74.1573 37.1347C73.7479 34.5935 74.9897 32.5935 75.9705 32.3737Z" fill="#BA68C8"/>
<path d="M67.2232 38.3297C67.0913 37.6429 67.5199 37.272 68.182 37.5056C68.5324 37.6495 68.8442 37.8736 69.0923 38.1599C69.3404 38.4462 69.5179 38.7866 69.6106 39.1539C69.7424 39.849 67.3523 39.0111 67.2232 38.3297Z" fill="#BA68C8"/>
<path d="M71.7534 40.4698L69.8056 39.2308C69.9045 39.7583 69.193 39.6841 68.5529 39.4616C67.9128 39.2391 67.1298 38.7885 67.0282 38.2611L65.3304 38.2391C65.1738 38.2391 65.171 38.4424 65.3304 38.61C65.7507 39.0797 66.7287 39.9122 68.7837 40.6292C70.8386 41.3462 71.6271 41.1237 71.9238 40.9039C72.0199 40.8215 71.932 40.5825 71.7534 40.4698Z" fill="#BA68C8"/>
</svg>
